G04 #@! TF.GenerationSoftware,KiCad,Pcbnew,7.0.6*
G04 #@! TF.CreationDate,2023-08-25T23:20:31+09:00*
G04 #@! TF.ProjectId,yamata37,79616d61-7461-4333-972e-6b696361645f,rev?*
G04 #@! TF.SameCoordinates,Original*
G04 #@! TF.FileFunction,Soldermask,Bot*
G04 #@! TF.FilePolarity,Negative*
%FSLAX46Y46*%
G04 Gerber Fmt 4.6, Leading zero omitted, Abs format (unit mm)*
G04 Created by KiCad (PCBNEW 7.0.6) date 2023-08-25 23:20:31*
%MOMM*%
%LPD*%
G01*
G04 APERTURE LIST*
%ADD10R,2.200000X0.820000*%
%ADD11C,2.000000*%
%ADD12C,3.000000*%
%ADD13C,4.000000*%
%ADD14R,3.300000X3.000000*%
%ADD15R,1.397000X1.397000*%
%ADD16R,0.950000X1.300000*%
%ADD17C,1.397000*%
%ADD18C,6.500000*%
%ADD19C,1.524000*%
G04 APERTURE END LIST*
D10*
X55214000Y-37084000D03*
X49314000Y-37084000D03*
X49314000Y-38584000D03*
X55214000Y-38584000D03*
D11*
X28257500Y-133350000D03*
D12*
X29527500Y-130810000D03*
D13*
X33337500Y-133350000D03*
D12*
X35877500Y-128270000D03*
D11*
X38417500Y-133350000D03*
D14*
X25887500Y-130770000D03*
X39487500Y-128230000D03*
D15*
X60721926Y-89524133D03*
D16*
X60721926Y-87489133D03*
X60721926Y-83939133D03*
D17*
X60721926Y-81904133D03*
D11*
X47307500Y-33337500D03*
D12*
X48577500Y-30797500D03*
D13*
X52387500Y-33337500D03*
D12*
X54927500Y-28257500D03*
D11*
X57467500Y-33337500D03*
D14*
X44937500Y-30757500D03*
X58537500Y-28217500D03*
D10*
X109072501Y-99566000D03*
X114972501Y-99566000D03*
X114972501Y-101066000D03*
X109072501Y-101066000D03*
X134165790Y-137184000D03*
X128265790Y-137184000D03*
X128265790Y-138684000D03*
X134165790Y-138684000D03*
D18*
X118467287Y-19050016D03*
D10*
X30518000Y-37084000D03*
X36418000Y-37084000D03*
X36418000Y-38584000D03*
X30518000Y-38584000D03*
D11*
X87788750Y-95250000D03*
D12*
X89058750Y-92710000D03*
D13*
X92868750Y-95250000D03*
D12*
X95408750Y-90170000D03*
D11*
X97948750Y-95250000D03*
D14*
X85418750Y-92670000D03*
X99018750Y-90130000D03*
D10*
X30387528Y-69365682D03*
X36287528Y-69365682D03*
X36287528Y-67865682D03*
X30387528Y-67865682D03*
D15*
X60721926Y-120502287D03*
D16*
X60721926Y-118467287D03*
X60721926Y-114917287D03*
D17*
X60721926Y-112882287D03*
D11*
X66357500Y-64293750D03*
D12*
X67627500Y-61753750D03*
D13*
X71437500Y-64293750D03*
D12*
X73977500Y-59213750D03*
D11*
X76517500Y-64293750D03*
D14*
X63987500Y-61713750D03*
X77587500Y-59173750D03*
D10*
X55214000Y-137184000D03*
X49314000Y-137184000D03*
X49314000Y-138684000D03*
X55214000Y-138684000D03*
D11*
X28257500Y-114300000D03*
D12*
X29527500Y-111760000D03*
D13*
X33337500Y-114300000D03*
D12*
X35877500Y-109220000D03*
D11*
X38417500Y-114300000D03*
D14*
X25887500Y-111720000D03*
X39487500Y-109180000D03*
D11*
X125888750Y-76200000D03*
D12*
X127158750Y-73660000D03*
D13*
X130968750Y-76200000D03*
D12*
X133508750Y-71120000D03*
D11*
X136048750Y-76200000D03*
D14*
X123518750Y-73620000D03*
X137118750Y-71080000D03*
D15*
X79248000Y-139446000D03*
D16*
X79248000Y-137411000D03*
X79248000Y-133861000D03*
D17*
X79248000Y-131826000D03*
D11*
X66357500Y-83343750D03*
D12*
X67627500Y-80803750D03*
D13*
X71437500Y-83343750D03*
D12*
X73977500Y-78263750D03*
D11*
X76517500Y-83343750D03*
D14*
X63987500Y-80763750D03*
X77587500Y-78223750D03*
D18*
X77390690Y-98821958D03*
D15*
X120130000Y-39530000D03*
D16*
X120130000Y-37495000D03*
X120130000Y-33945000D03*
D17*
X120130000Y-31910000D03*
D11*
X106838750Y-57150000D03*
D12*
X108108750Y-54610000D03*
D13*
X111918750Y-57150000D03*
D12*
X114458750Y-52070000D03*
D11*
X116998750Y-57150000D03*
D14*
X104468750Y-54570000D03*
X118068750Y-52030000D03*
D15*
X60452000Y-139446000D03*
D16*
X60452000Y-137411000D03*
X60452000Y-133861000D03*
D17*
X60452000Y-131826000D03*
D10*
X68618000Y-138684000D03*
X74518000Y-138684000D03*
X74518000Y-137184000D03*
X68618000Y-137184000D03*
D11*
X66357500Y-133350000D03*
D12*
X67627500Y-130810000D03*
D13*
X71437500Y-133350000D03*
D12*
X73977500Y-128270000D03*
D11*
X76517500Y-133350000D03*
D14*
X63987500Y-130770000D03*
X77587500Y-128230000D03*
D15*
X41671910Y-120502287D03*
D16*
X41671910Y-118467287D03*
X41671910Y-114917287D03*
D17*
X41671910Y-112882287D03*
D10*
X108909672Y-137336000D03*
X114809672Y-137336000D03*
X114809672Y-138836000D03*
X108909672Y-138836000D03*
D15*
X158353258Y-101523626D03*
D16*
X158353258Y-99488626D03*
X158353258Y-95938626D03*
D17*
X158353258Y-93903626D03*
D15*
X79771942Y-120502287D03*
D16*
X79771942Y-118467287D03*
X79771942Y-114917287D03*
D17*
X79771942Y-112882287D03*
D15*
X101092000Y-39627000D03*
D16*
X101092000Y-37592000D03*
X101092000Y-34042000D03*
D17*
X101092000Y-32007000D03*
D18*
X163711075Y-147042311D03*
D15*
X158353258Y-82402255D03*
D16*
X158353258Y-80367255D03*
X158353258Y-76817255D03*
D17*
X158353258Y-74782255D03*
D10*
X30387528Y-119864000D03*
X36287528Y-119864000D03*
X36287528Y-118364000D03*
X30387528Y-118364000D03*
D15*
X41656000Y-39530000D03*
D16*
X41656000Y-37495000D03*
X41656000Y-33945000D03*
D17*
X41656000Y-31910000D03*
D15*
X139303242Y-101452271D03*
D16*
X139303242Y-99417271D03*
X139303242Y-95867271D03*
D17*
X139303242Y-93832271D03*
D15*
X60786177Y-70538904D03*
D16*
X60786177Y-68503904D03*
X60786177Y-64953904D03*
D17*
X60786177Y-62918904D03*
D10*
X134165790Y-80020000D03*
X128265790Y-80020000D03*
X128265790Y-81520000D03*
X134165790Y-81520000D03*
X55214000Y-118364000D03*
X49314000Y-118364000D03*
X49314000Y-119864000D03*
X55214000Y-119864000D03*
D15*
X41671910Y-89546011D03*
D16*
X41671910Y-87511011D03*
X41671910Y-83961011D03*
D17*
X41671910Y-81926011D03*
D11*
X47307500Y-83343750D03*
D12*
X48577500Y-80803750D03*
D13*
X52387500Y-83343750D03*
D12*
X54927500Y-78263750D03*
D11*
X57467500Y-83343750D03*
D14*
X44937500Y-80763750D03*
X58537500Y-78223750D03*
D11*
X87788750Y-57150000D03*
D12*
X89058750Y-54610000D03*
D13*
X92868750Y-57150000D03*
D12*
X95408750Y-52070000D03*
D11*
X97948750Y-57150000D03*
D14*
X85418750Y-54570000D03*
X99018750Y-52030000D03*
D11*
X144938750Y-114300000D03*
D12*
X146208750Y-111760000D03*
D13*
X150018750Y-114300000D03*
D12*
X152558750Y-109220000D03*
D11*
X155098750Y-114300000D03*
D14*
X142568750Y-111720000D03*
X156168750Y-109180000D03*
D15*
X101203210Y-82380377D03*
D16*
X101203210Y-80345377D03*
X101203210Y-76795377D03*
D17*
X101203210Y-74760377D03*
D15*
X120253226Y-82402255D03*
D16*
X120253226Y-80367255D03*
X120253226Y-76817255D03*
D17*
X120253226Y-74782255D03*
D11*
X125888750Y-95250000D03*
D12*
X127158750Y-92710000D03*
D13*
X130968750Y-95250000D03*
D12*
X133508750Y-90170000D03*
D11*
X136048750Y-95250000D03*
D14*
X123518750Y-92670000D03*
X137118750Y-90130000D03*
D19*
X163592006Y-33850172D03*
X161052006Y-33850172D03*
X158512006Y-33850172D03*
X155972006Y-33850172D03*
X153432006Y-33850172D03*
X150892006Y-33850172D03*
X148352006Y-33850172D03*
X145812006Y-33850172D03*
X143272006Y-33850172D03*
X140732006Y-33850172D03*
X138192006Y-33850172D03*
X135652006Y-33850172D03*
X135652006Y-18630172D03*
X138192006Y-18630172D03*
X140732006Y-18630172D03*
X143272006Y-18630172D03*
X145812006Y-18630172D03*
X148352006Y-18630172D03*
X150892006Y-18630172D03*
X153432006Y-18630172D03*
X155972006Y-18630172D03*
X158512006Y-18630172D03*
X161052006Y-18630172D03*
X163592006Y-18630172D03*
D11*
X131564173Y-17264077D03*
X125064173Y-17264077D03*
X87788750Y-133350000D03*
D12*
X89058750Y-130810000D03*
D13*
X92868750Y-133350000D03*
D12*
X95408750Y-128270000D03*
D11*
X97948750Y-133350000D03*
D14*
X85418750Y-130770000D03*
X99018750Y-128230000D03*
D15*
X101203210Y-101452271D03*
D16*
X101203210Y-99417271D03*
X101203210Y-95867271D03*
D17*
X101203210Y-93832271D03*
X130968860Y-30003772D03*
X130968860Y-27463772D03*
X130968860Y-24923772D03*
X130968860Y-22383772D03*
D15*
X79756000Y-70615000D03*
D16*
X79756000Y-68580000D03*
X79756000Y-65030000D03*
D17*
X79756000Y-62995000D03*
D11*
X66357500Y-33337500D03*
D12*
X67627500Y-30797500D03*
D13*
X71437500Y-33337500D03*
D12*
X73977500Y-28257500D03*
D11*
X76517500Y-33337500D03*
D14*
X63987500Y-30757500D03*
X77587500Y-28217500D03*
D10*
X68618000Y-119864000D03*
X74518000Y-119864000D03*
X74518000Y-118364000D03*
X68618000Y-118364000D03*
X109072501Y-80246000D03*
X114972501Y-80246000D03*
X114972501Y-81746000D03*
X109072501Y-81746000D03*
X109072501Y-118455250D03*
X114972501Y-118455250D03*
X114972501Y-119955250D03*
X109072501Y-119955250D03*
X134165790Y-99340000D03*
X128265790Y-99340000D03*
X128265790Y-100840000D03*
X134165790Y-100840000D03*
D11*
X87788750Y-114300000D03*
D12*
X89058750Y-111760000D03*
D13*
X92868750Y-114300000D03*
D12*
X95408750Y-109220000D03*
D11*
X97948750Y-114300000D03*
D14*
X85418750Y-111720000D03*
X99018750Y-109180000D03*
D15*
X158353258Y-120491348D03*
D16*
X158353258Y-118456348D03*
X158353258Y-114906348D03*
D17*
X158353258Y-112871348D03*
D10*
X30387528Y-138684000D03*
X36287528Y-138684000D03*
X36287528Y-137184000D03*
X30387528Y-137184000D03*
D11*
X106838750Y-95250000D03*
D12*
X108108750Y-92710000D03*
D13*
X111918750Y-95250000D03*
D12*
X114458750Y-90170000D03*
D11*
X116998750Y-95250000D03*
D14*
X104468750Y-92670000D03*
X118068750Y-90130000D03*
D15*
X139303242Y-139544252D03*
D16*
X139303242Y-137509252D03*
X139303242Y-133959252D03*
D17*
X139303242Y-131924252D03*
D11*
X125888750Y-114300000D03*
D12*
X127158750Y-111760000D03*
D13*
X130968750Y-114300000D03*
D12*
X133508750Y-109220000D03*
D11*
X136048750Y-114300000D03*
D14*
X123518750Y-111720000D03*
X137118750Y-109180000D03*
D11*
X125888750Y-133350000D03*
D12*
X127158750Y-130810000D03*
D13*
X130968750Y-133350000D03*
D12*
X133508750Y-128270000D03*
D11*
X136048750Y-133350000D03*
D14*
X123518750Y-130770000D03*
X137118750Y-128230000D03*
D11*
X144938750Y-133350000D03*
D12*
X146208750Y-130810000D03*
D13*
X150018750Y-133350000D03*
D12*
X152558750Y-128270000D03*
D11*
X155098750Y-133350000D03*
D14*
X142568750Y-130770000D03*
X156168750Y-128230000D03*
D18*
X163711075Y-43457849D03*
D15*
X41656000Y-70615000D03*
D16*
X41656000Y-68580000D03*
X41656000Y-65030000D03*
D17*
X41656000Y-62995000D03*
D18*
X19645329Y-147042311D03*
D15*
X120253226Y-101603000D03*
D16*
X120253226Y-99568000D03*
X120253226Y-96018000D03*
D17*
X120253226Y-93983000D03*
D15*
X120253226Y-139552303D03*
D16*
X120253226Y-137517303D03*
X120253226Y-133967303D03*
D17*
X120253226Y-131932303D03*
D11*
X87788750Y-76200000D03*
D12*
X89058750Y-73660000D03*
D13*
X92868750Y-76200000D03*
D12*
X95408750Y-71120000D03*
D11*
X97948750Y-76200000D03*
D14*
X85418750Y-73620000D03*
X99018750Y-71080000D03*
D15*
X79771942Y-89546011D03*
D16*
X79771942Y-87511011D03*
X79771942Y-83961011D03*
D17*
X79771942Y-81926011D03*
D15*
X60694000Y-39530000D03*
D16*
X60694000Y-37495000D03*
X60694000Y-33945000D03*
D17*
X60694000Y-31910000D03*
D10*
X96065790Y-60984000D03*
X90165790Y-60984000D03*
X90165790Y-62484000D03*
X96065790Y-62484000D03*
D18*
X126206356Y-42862536D03*
D10*
X147140000Y-80020000D03*
X153040000Y-80020000D03*
X153040000Y-81520000D03*
X147140000Y-81520000D03*
X68618000Y-69365682D03*
X74518000Y-69365682D03*
X74518000Y-67865682D03*
X68618000Y-67865682D03*
D15*
X79756000Y-39624000D03*
D16*
X79756000Y-37589000D03*
X79756000Y-34039000D03*
D17*
X79756000Y-32004000D03*
D15*
X158353258Y-63344250D03*
D16*
X158353258Y-61309250D03*
X158353258Y-57759250D03*
D17*
X158353258Y-55724250D03*
D11*
X144938750Y-76200000D03*
D12*
X146208750Y-73660000D03*
D13*
X150018750Y-76200000D03*
D12*
X152558750Y-71120000D03*
D11*
X155098750Y-76200000D03*
D14*
X142568750Y-73620000D03*
X156168750Y-71080000D03*
D10*
X134165790Y-60984000D03*
X128265790Y-60984000D03*
X128265790Y-62484000D03*
X134165790Y-62484000D03*
X96065790Y-118229250D03*
X90165790Y-118229250D03*
X90165790Y-119729250D03*
X96065790Y-119729250D03*
D11*
X106838750Y-133350000D03*
D12*
X108108750Y-130810000D03*
D13*
X111918750Y-133350000D03*
D12*
X114458750Y-128270000D03*
D11*
X116998750Y-133350000D03*
D14*
X104468750Y-130770000D03*
X118068750Y-128230000D03*
D15*
X101203210Y-139552303D03*
D16*
X101203210Y-137517303D03*
X101203210Y-133967303D03*
D17*
X101203210Y-131932303D03*
D10*
X55214000Y-67865682D03*
X49314000Y-67865682D03*
X49314000Y-69365682D03*
X55214000Y-69365682D03*
D15*
X139303242Y-120502287D03*
D16*
X139303242Y-118467287D03*
X139303242Y-114917287D03*
D17*
X139303242Y-112882287D03*
D10*
X96065790Y-137184000D03*
X90165790Y-137184000D03*
X90165790Y-138684000D03*
X96065790Y-138684000D03*
D11*
X28257500Y-83343750D03*
D12*
X29527500Y-80803750D03*
D13*
X33337500Y-83343750D03*
D12*
X35877500Y-78263750D03*
D11*
X38417500Y-83343750D03*
D14*
X25887500Y-80763750D03*
X39487500Y-78223750D03*
D11*
X47307500Y-64293750D03*
D12*
X48577500Y-61753750D03*
D13*
X52387500Y-64293750D03*
D12*
X54927500Y-59213750D03*
D11*
X57467500Y-64293750D03*
D14*
X44937500Y-61713750D03*
X58537500Y-59173750D03*
D18*
X19645329Y-19050016D03*
D15*
X120253226Y-120502287D03*
D16*
X120253226Y-118467287D03*
X120253226Y-114917287D03*
D17*
X120253226Y-112882287D03*
D15*
X139160250Y-63352239D03*
D16*
X139160250Y-61317239D03*
X139160250Y-57767239D03*
D17*
X139160250Y-55732239D03*
D10*
X147140000Y-99340000D03*
X153040000Y-99340000D03*
X153040000Y-100840000D03*
X147140000Y-100840000D03*
D11*
X66357500Y-114300000D03*
D12*
X67627500Y-111760000D03*
D13*
X71437500Y-114300000D03*
D12*
X73977500Y-109220000D03*
D11*
X76517500Y-114300000D03*
D14*
X63987500Y-111720000D03*
X77587500Y-109180000D03*
D18*
X77390690Y-48815666D03*
D15*
X101203210Y-63341300D03*
D16*
X101203210Y-61306300D03*
X101203210Y-57756300D03*
D17*
X101203210Y-55721300D03*
D11*
X47307500Y-133350000D03*
D12*
X48577500Y-130810000D03*
D13*
X52387500Y-133350000D03*
D12*
X54927500Y-128270000D03*
D11*
X57467500Y-133350000D03*
D14*
X44937500Y-130770000D03*
X58537500Y-128230000D03*
D10*
X109072501Y-61210000D03*
X114972501Y-61210000D03*
X114972501Y-62710000D03*
X109072501Y-62710000D03*
X68610000Y-88550000D03*
X74510000Y-88550000D03*
X74510000Y-87050000D03*
X68610000Y-87050000D03*
X96065790Y-80020000D03*
X90165790Y-80020000D03*
X90165790Y-81520000D03*
X96065790Y-81520000D03*
D15*
X41148000Y-139703000D03*
D16*
X41148000Y-137668000D03*
X41148000Y-134118000D03*
D17*
X41148000Y-132083000D03*
D10*
X95794000Y-37084000D03*
X89894000Y-37084000D03*
X89894000Y-38584000D03*
X95794000Y-38584000D03*
D11*
X125888750Y-57150000D03*
D12*
X127158750Y-54610000D03*
D13*
X130968750Y-57150000D03*
D12*
X133508750Y-52070000D03*
D11*
X136048750Y-57150000D03*
D14*
X123518750Y-54570000D03*
X137118750Y-52030000D03*
D11*
X87788750Y-33337500D03*
D12*
X89058750Y-30797500D03*
D13*
X92868750Y-33337500D03*
D12*
X95408750Y-28257500D03*
D11*
X97948750Y-33337500D03*
D14*
X85418750Y-30757500D03*
X99018750Y-28217500D03*
D10*
X109082961Y-38810000D03*
X114982961Y-38810000D03*
X114982961Y-37310000D03*
X109082961Y-37310000D03*
X147140000Y-118229250D03*
X153040000Y-118229250D03*
X153040000Y-119729250D03*
X147140000Y-119729250D03*
D11*
X28257500Y-64293750D03*
D12*
X29527500Y-61753750D03*
D13*
X33337500Y-64293750D03*
D12*
X35877500Y-59213750D03*
D11*
X38417500Y-64293750D03*
D14*
X25887500Y-61713750D03*
X39487500Y-59173750D03*
D10*
X55206000Y-87050000D03*
X49306000Y-87050000D03*
X49306000Y-88550000D03*
X55206000Y-88550000D03*
D11*
X47307500Y-114300000D03*
D12*
X48577500Y-111760000D03*
D13*
X52387500Y-114300000D03*
D12*
X54927500Y-109220000D03*
D11*
X57467500Y-114300000D03*
D14*
X44937500Y-111720000D03*
X58537500Y-109180000D03*
D15*
X101203210Y-120502287D03*
D16*
X101203210Y-118467287D03*
X101203210Y-114917287D03*
D17*
X101203210Y-112882287D03*
D11*
X106838750Y-114300000D03*
D12*
X108108750Y-111760000D03*
D13*
X111918750Y-114300000D03*
D12*
X114458750Y-109220000D03*
D11*
X116998750Y-114300000D03*
D14*
X104468750Y-111720000D03*
X118068750Y-109180000D03*
D11*
X144938750Y-57150000D03*
D12*
X146208750Y-54610000D03*
D13*
X150018750Y-57150000D03*
D12*
X152558750Y-52070000D03*
D11*
X155098750Y-57150000D03*
D14*
X142568750Y-54570000D03*
X156168750Y-52030000D03*
D10*
X30379528Y-88550000D03*
X36279528Y-88550000D03*
X36279528Y-87050000D03*
X30379528Y-87050000D03*
X147140000Y-137184000D03*
X153040000Y-137184000D03*
X153040000Y-138684000D03*
X147140000Y-138684000D03*
D15*
X139303242Y-82402255D03*
D16*
X139303242Y-80367255D03*
X139303242Y-76817255D03*
D17*
X139303242Y-74782255D03*
D11*
X144938750Y-95250000D03*
D12*
X146208750Y-92710000D03*
D13*
X150018750Y-95250000D03*
D12*
X152558750Y-90170000D03*
D11*
X155098750Y-95250000D03*
D14*
X142568750Y-92670000D03*
X156168750Y-90130000D03*
D10*
X134165790Y-118229250D03*
X128265790Y-118229250D03*
X128265790Y-119729250D03*
X134165790Y-119729250D03*
D15*
X158353258Y-139552303D03*
D16*
X158353258Y-137517303D03*
X158353258Y-133967303D03*
D17*
X158353258Y-131932303D03*
D10*
X96065790Y-99340000D03*
X90165790Y-99340000D03*
X90165790Y-100840000D03*
X96065790Y-100840000D03*
X147140000Y-60910000D03*
X153040000Y-60910000D03*
X153040000Y-62410000D03*
X147140000Y-62410000D03*
D11*
X28257500Y-33337500D03*
D12*
X29527500Y-30797500D03*
D13*
X33337500Y-33337500D03*
D12*
X35877500Y-28257500D03*
D11*
X38417500Y-33337500D03*
D14*
X25887500Y-30757500D03*
X39487500Y-28217500D03*
X118068750Y-28217500D03*
X104468750Y-30757500D03*
D11*
X116998750Y-33337500D03*
D12*
X114458750Y-28257500D03*
D13*
X111918750Y-33337500D03*
D12*
X108108750Y-30797500D03*
D11*
X106838750Y-33337500D03*
D10*
X68618000Y-38584000D03*
X74518000Y-38584000D03*
X74518000Y-37084000D03*
X68618000Y-37084000D03*
D11*
X106838750Y-76200000D03*
D12*
X108108750Y-73660000D03*
D13*
X111918750Y-76200000D03*
D12*
X114458750Y-71120000D03*
D11*
X116998750Y-76200000D03*
D14*
X104468750Y-73620000D03*
X118068750Y-71080000D03*
D15*
X120253226Y-63246000D03*
D16*
X120253226Y-61211000D03*
X120253226Y-57661000D03*
D17*
X120253226Y-55626000D03*
M02*
