G04 #@! TF.GenerationSoftware,KiCad,Pcbnew,7.0.6*
G04 #@! TF.CreationDate,2023-08-25T23:20:30+09:00*
G04 #@! TF.ProjectId,yamata37,79616d61-7461-4333-972e-6b696361645f,rev?*
G04 #@! TF.SameCoordinates,Original*
G04 #@! TF.FileFunction,Legend,Top*
G04 #@! TF.FilePolarity,Positive*
%FSLAX46Y46*%
G04 Gerber Fmt 4.6, Leading zero omitted, Abs format (unit mm)*
G04 Created by KiCad (PCBNEW 7.0.6) date 2023-08-25 23:20:30*
%MOMM*%
%LPD*%
G01*
G04 APERTURE LIST*
%ADD10C,0.125000*%
%ADD11C,0.150000*%
%ADD12C,2.000000*%
%ADD13C,4.000000*%
%ADD14R,1.397000X1.397000*%
%ADD15C,1.397000*%
%ADD16C,1.524000*%
G04 APERTURE END LIST*
D10*
X138648125Y-37415827D02*
X138171934Y-37582493D01*
X138648125Y-37701541D02*
X137648125Y-37701541D01*
X137648125Y-37701541D02*
X137648125Y-37511065D01*
X137648125Y-37511065D02*
X137695744Y-37463446D01*
X137695744Y-37463446D02*
X137743363Y-37439636D01*
X137743363Y-37439636D02*
X137838601Y-37415827D01*
X137838601Y-37415827D02*
X137981458Y-37415827D01*
X137981458Y-37415827D02*
X138076696Y-37439636D01*
X138076696Y-37439636D02*
X138124315Y-37463446D01*
X138124315Y-37463446D02*
X138171934Y-37511065D01*
X138171934Y-37511065D02*
X138171934Y-37701541D01*
X137648125Y-37106303D02*
X137648125Y-37011065D01*
X137648125Y-37011065D02*
X137695744Y-36963446D01*
X137695744Y-36963446D02*
X137790982Y-36915827D01*
X137790982Y-36915827D02*
X137981458Y-36892017D01*
X137981458Y-36892017D02*
X138314791Y-36892017D01*
X138314791Y-36892017D02*
X138505267Y-36915827D01*
X138505267Y-36915827D02*
X138600506Y-36963446D01*
X138600506Y-36963446D02*
X138648125Y-37011065D01*
X138648125Y-37011065D02*
X138648125Y-37106303D01*
X138648125Y-37106303D02*
X138600506Y-37153922D01*
X138600506Y-37153922D02*
X138505267Y-37201541D01*
X138505267Y-37201541D02*
X138314791Y-37225350D01*
X138314791Y-37225350D02*
X137981458Y-37225350D01*
X137981458Y-37225350D02*
X137790982Y-37201541D01*
X137790982Y-37201541D02*
X137695744Y-37153922D01*
X137695744Y-37153922D02*
X137648125Y-37106303D01*
X137648125Y-36725350D02*
X138648125Y-36606302D01*
X138648125Y-36606302D02*
X137933839Y-36511064D01*
X137933839Y-36511064D02*
X138648125Y-36415826D01*
X138648125Y-36415826D02*
X137648125Y-36296779D01*
X137981458Y-35892016D02*
X138648125Y-35892016D01*
X137600506Y-36011064D02*
X138314791Y-36130111D01*
X138314791Y-36130111D02*
X138314791Y-35820588D01*
X136044625Y-37415827D02*
X135568434Y-37582493D01*
X136044625Y-37701541D02*
X135044625Y-37701541D01*
X135044625Y-37701541D02*
X135044625Y-37511065D01*
X135044625Y-37511065D02*
X135092244Y-37463446D01*
X135092244Y-37463446D02*
X135139863Y-37439636D01*
X135139863Y-37439636D02*
X135235101Y-37415827D01*
X135235101Y-37415827D02*
X135377958Y-37415827D01*
X135377958Y-37415827D02*
X135473196Y-37439636D01*
X135473196Y-37439636D02*
X135520815Y-37463446D01*
X135520815Y-37463446D02*
X135568434Y-37511065D01*
X135568434Y-37511065D02*
X135568434Y-37701541D01*
X135044625Y-37106303D02*
X135044625Y-37011065D01*
X135044625Y-37011065D02*
X135092244Y-36963446D01*
X135092244Y-36963446D02*
X135187482Y-36915827D01*
X135187482Y-36915827D02*
X135377958Y-36892017D01*
X135377958Y-36892017D02*
X135711291Y-36892017D01*
X135711291Y-36892017D02*
X135901767Y-36915827D01*
X135901767Y-36915827D02*
X135997006Y-36963446D01*
X135997006Y-36963446D02*
X136044625Y-37011065D01*
X136044625Y-37011065D02*
X136044625Y-37106303D01*
X136044625Y-37106303D02*
X135997006Y-37153922D01*
X135997006Y-37153922D02*
X135901767Y-37201541D01*
X135901767Y-37201541D02*
X135711291Y-37225350D01*
X135711291Y-37225350D02*
X135377958Y-37225350D01*
X135377958Y-37225350D02*
X135187482Y-37201541D01*
X135187482Y-37201541D02*
X135092244Y-37153922D01*
X135092244Y-37153922D02*
X135044625Y-37106303D01*
X135044625Y-36725350D02*
X136044625Y-36606302D01*
X136044625Y-36606302D02*
X135330339Y-36511064D01*
X135330339Y-36511064D02*
X136044625Y-36415826D01*
X136044625Y-36415826D02*
X135044625Y-36296779D01*
X135044625Y-35868207D02*
X135044625Y-36106302D01*
X135044625Y-36106302D02*
X135520815Y-36130111D01*
X135520815Y-36130111D02*
X135473196Y-36106302D01*
X135473196Y-36106302D02*
X135425577Y-36058683D01*
X135425577Y-36058683D02*
X135425577Y-35939635D01*
X135425577Y-35939635D02*
X135473196Y-35892016D01*
X135473196Y-35892016D02*
X135520815Y-35868207D01*
X135520815Y-35868207D02*
X135616053Y-35844397D01*
X135616053Y-35844397D02*
X135854148Y-35844397D01*
X135854148Y-35844397D02*
X135949386Y-35868207D01*
X135949386Y-35868207D02*
X135997006Y-35892016D01*
X135997006Y-35892016D02*
X136044625Y-35939635D01*
X136044625Y-35939635D02*
X136044625Y-36058683D01*
X136044625Y-36058683D02*
X135997006Y-36106302D01*
X135997006Y-36106302D02*
X135949386Y-36130111D01*
X158111690Y-37210952D02*
X158073595Y-37258571D01*
X158073595Y-37258571D02*
X158073595Y-37330000D01*
X158073595Y-37330000D02*
X158111690Y-37401428D01*
X158111690Y-37401428D02*
X158187880Y-37449047D01*
X158187880Y-37449047D02*
X158264071Y-37472857D01*
X158264071Y-37472857D02*
X158416452Y-37496666D01*
X158416452Y-37496666D02*
X158530738Y-37496666D01*
X158530738Y-37496666D02*
X158683119Y-37472857D01*
X158683119Y-37472857D02*
X158759309Y-37449047D01*
X158759309Y-37449047D02*
X158835500Y-37401428D01*
X158835500Y-37401428D02*
X158873595Y-37330000D01*
X158873595Y-37330000D02*
X158873595Y-37282381D01*
X158873595Y-37282381D02*
X158835500Y-37210952D01*
X158835500Y-37210952D02*
X158797404Y-37187143D01*
X158797404Y-37187143D02*
X158530738Y-37187143D01*
X158530738Y-37187143D02*
X158530738Y-37282381D01*
X158873595Y-36972857D02*
X158073595Y-36972857D01*
X158073595Y-36972857D02*
X158873595Y-36687143D01*
X158873595Y-36687143D02*
X158073595Y-36687143D01*
X158873595Y-36449047D02*
X158073595Y-36449047D01*
X158073595Y-36449047D02*
X158073595Y-36329999D01*
X158073595Y-36329999D02*
X158111690Y-36258571D01*
X158111690Y-36258571D02*
X158187880Y-36210952D01*
X158187880Y-36210952D02*
X158264071Y-36187142D01*
X158264071Y-36187142D02*
X158416452Y-36163333D01*
X158416452Y-36163333D02*
X158530738Y-36163333D01*
X158530738Y-36163333D02*
X158683119Y-36187142D01*
X158683119Y-36187142D02*
X158759309Y-36210952D01*
X158759309Y-36210952D02*
X158835500Y-36258571D01*
X158835500Y-36258571D02*
X158873595Y-36329999D01*
X158873595Y-36329999D02*
X158873595Y-36449047D01*
X161520125Y-37684874D02*
X160520125Y-37684874D01*
X160520125Y-37684874D02*
X160520125Y-37565826D01*
X160520125Y-37565826D02*
X160567744Y-37494398D01*
X160567744Y-37494398D02*
X160662982Y-37446779D01*
X160662982Y-37446779D02*
X160758220Y-37422969D01*
X160758220Y-37422969D02*
X160948696Y-37399160D01*
X160948696Y-37399160D02*
X161091553Y-37399160D01*
X161091553Y-37399160D02*
X161282029Y-37422969D01*
X161282029Y-37422969D02*
X161377267Y-37446779D01*
X161377267Y-37446779D02*
X161472506Y-37494398D01*
X161472506Y-37494398D02*
X161520125Y-37565826D01*
X161520125Y-37565826D02*
X161520125Y-37684874D01*
X161234410Y-37208683D02*
X161234410Y-36970588D01*
X161520125Y-37256302D02*
X160520125Y-37089636D01*
X160520125Y-37089636D02*
X161520125Y-36922969D01*
X160520125Y-36827731D02*
X160520125Y-36542017D01*
X161520125Y-36684874D02*
X160520125Y-36684874D01*
X161234410Y-36399160D02*
X161234410Y-36161065D01*
X161520125Y-36446779D02*
X160520125Y-36280113D01*
X160520125Y-36280113D02*
X161520125Y-36113446D01*
X148712886Y-16841391D02*
X148760506Y-16865200D01*
X148760506Y-16865200D02*
X148808125Y-16936629D01*
X148808125Y-16936629D02*
X148808125Y-16984248D01*
X148808125Y-16984248D02*
X148760506Y-17055676D01*
X148760506Y-17055676D02*
X148665267Y-17103295D01*
X148665267Y-17103295D02*
X148570029Y-17127105D01*
X148570029Y-17127105D02*
X148379553Y-17150914D01*
X148379553Y-17150914D02*
X148236696Y-17150914D01*
X148236696Y-17150914D02*
X148046220Y-17127105D01*
X148046220Y-17127105D02*
X147950982Y-17103295D01*
X147950982Y-17103295D02*
X147855744Y-17055676D01*
X147855744Y-17055676D02*
X147808125Y-16984248D01*
X147808125Y-16984248D02*
X147808125Y-16936629D01*
X147808125Y-16936629D02*
X147855744Y-16865200D01*
X147855744Y-16865200D02*
X147903363Y-16841391D01*
X147808125Y-16531867D02*
X147808125Y-16436629D01*
X147808125Y-16436629D02*
X147855744Y-16389010D01*
X147855744Y-16389010D02*
X147950982Y-16341391D01*
X147950982Y-16341391D02*
X148141458Y-16317581D01*
X148141458Y-16317581D02*
X148474791Y-16317581D01*
X148474791Y-16317581D02*
X148665267Y-16341391D01*
X148665267Y-16341391D02*
X148760506Y-16389010D01*
X148760506Y-16389010D02*
X148808125Y-16436629D01*
X148808125Y-16436629D02*
X148808125Y-16531867D01*
X148808125Y-16531867D02*
X148760506Y-16579486D01*
X148760506Y-16579486D02*
X148665267Y-16627105D01*
X148665267Y-16627105D02*
X148474791Y-16650914D01*
X148474791Y-16650914D02*
X148141458Y-16650914D01*
X148141458Y-16650914D02*
X147950982Y-16627105D01*
X147950982Y-16627105D02*
X147855744Y-16579486D01*
X147855744Y-16579486D02*
X147808125Y-16531867D01*
X148808125Y-15865200D02*
X148808125Y-16103295D01*
X148808125Y-16103295D02*
X147808125Y-16103295D01*
X147903363Y-15722342D02*
X147855744Y-15698533D01*
X147855744Y-15698533D02*
X147808125Y-15650914D01*
X147808125Y-15650914D02*
X147808125Y-15531866D01*
X147808125Y-15531866D02*
X147855744Y-15484247D01*
X147855744Y-15484247D02*
X147903363Y-15460438D01*
X147903363Y-15460438D02*
X147998601Y-15436628D01*
X147998601Y-15436628D02*
X148093839Y-15436628D01*
X148093839Y-15436628D02*
X148236696Y-15460438D01*
X148236696Y-15460438D02*
X148808125Y-15746152D01*
X148808125Y-15746152D02*
X148808125Y-15436628D01*
X138524886Y-16791391D02*
X138572506Y-16815200D01*
X138572506Y-16815200D02*
X138620125Y-16886629D01*
X138620125Y-16886629D02*
X138620125Y-16934248D01*
X138620125Y-16934248D02*
X138572506Y-17005676D01*
X138572506Y-17005676D02*
X138477267Y-17053295D01*
X138477267Y-17053295D02*
X138382029Y-17077105D01*
X138382029Y-17077105D02*
X138191553Y-17100914D01*
X138191553Y-17100914D02*
X138048696Y-17100914D01*
X138048696Y-17100914D02*
X137858220Y-17077105D01*
X137858220Y-17077105D02*
X137762982Y-17053295D01*
X137762982Y-17053295D02*
X137667744Y-17005676D01*
X137667744Y-17005676D02*
X137620125Y-16934248D01*
X137620125Y-16934248D02*
X137620125Y-16886629D01*
X137620125Y-16886629D02*
X137667744Y-16815200D01*
X137667744Y-16815200D02*
X137715363Y-16791391D01*
X137620125Y-16481867D02*
X137620125Y-16386629D01*
X137620125Y-16386629D02*
X137667744Y-16339010D01*
X137667744Y-16339010D02*
X137762982Y-16291391D01*
X137762982Y-16291391D02*
X137953458Y-16267581D01*
X137953458Y-16267581D02*
X138286791Y-16267581D01*
X138286791Y-16267581D02*
X138477267Y-16291391D01*
X138477267Y-16291391D02*
X138572506Y-16339010D01*
X138572506Y-16339010D02*
X138620125Y-16386629D01*
X138620125Y-16386629D02*
X138620125Y-16481867D01*
X138620125Y-16481867D02*
X138572506Y-16529486D01*
X138572506Y-16529486D02*
X138477267Y-16577105D01*
X138477267Y-16577105D02*
X138286791Y-16600914D01*
X138286791Y-16600914D02*
X137953458Y-16600914D01*
X137953458Y-16600914D02*
X137762982Y-16577105D01*
X137762982Y-16577105D02*
X137667744Y-16529486D01*
X137667744Y-16529486D02*
X137620125Y-16481867D01*
X138620125Y-15815200D02*
X138620125Y-16053295D01*
X138620125Y-16053295D02*
X137620125Y-16053295D01*
X137620125Y-15434247D02*
X137620125Y-15529485D01*
X137620125Y-15529485D02*
X137667744Y-15577104D01*
X137667744Y-15577104D02*
X137715363Y-15600914D01*
X137715363Y-15600914D02*
X137858220Y-15648533D01*
X137858220Y-15648533D02*
X138048696Y-15672342D01*
X138048696Y-15672342D02*
X138429648Y-15672342D01*
X138429648Y-15672342D02*
X138524886Y-15648533D01*
X138524886Y-15648533D02*
X138572506Y-15624723D01*
X138572506Y-15624723D02*
X138620125Y-15577104D01*
X138620125Y-15577104D02*
X138620125Y-15481866D01*
X138620125Y-15481866D02*
X138572506Y-15434247D01*
X138572506Y-15434247D02*
X138524886Y-15410438D01*
X138524886Y-15410438D02*
X138429648Y-15386628D01*
X138429648Y-15386628D02*
X138191553Y-15386628D01*
X138191553Y-15386628D02*
X138096315Y-15410438D01*
X138096315Y-15410438D02*
X138048696Y-15434247D01*
X138048696Y-15434247D02*
X138001077Y-15481866D01*
X138001077Y-15481866D02*
X138001077Y-15577104D01*
X138001077Y-15577104D02*
X138048696Y-15624723D01*
X138048696Y-15624723D02*
X138096315Y-15648533D01*
X138096315Y-15648533D02*
X138191553Y-15672342D01*
X141029386Y-16791391D02*
X141077006Y-16815200D01*
X141077006Y-16815200D02*
X141124625Y-16886629D01*
X141124625Y-16886629D02*
X141124625Y-16934248D01*
X141124625Y-16934248D02*
X141077006Y-17005676D01*
X141077006Y-17005676D02*
X140981767Y-17053295D01*
X140981767Y-17053295D02*
X140886529Y-17077105D01*
X140886529Y-17077105D02*
X140696053Y-17100914D01*
X140696053Y-17100914D02*
X140553196Y-17100914D01*
X140553196Y-17100914D02*
X140362720Y-17077105D01*
X140362720Y-17077105D02*
X140267482Y-17053295D01*
X140267482Y-17053295D02*
X140172244Y-17005676D01*
X140172244Y-17005676D02*
X140124625Y-16934248D01*
X140124625Y-16934248D02*
X140124625Y-16886629D01*
X140124625Y-16886629D02*
X140172244Y-16815200D01*
X140172244Y-16815200D02*
X140219863Y-16791391D01*
X140124625Y-16481867D02*
X140124625Y-16386629D01*
X140124625Y-16386629D02*
X140172244Y-16339010D01*
X140172244Y-16339010D02*
X140267482Y-16291391D01*
X140267482Y-16291391D02*
X140457958Y-16267581D01*
X140457958Y-16267581D02*
X140791291Y-16267581D01*
X140791291Y-16267581D02*
X140981767Y-16291391D01*
X140981767Y-16291391D02*
X141077006Y-16339010D01*
X141077006Y-16339010D02*
X141124625Y-16386629D01*
X141124625Y-16386629D02*
X141124625Y-16481867D01*
X141124625Y-16481867D02*
X141077006Y-16529486D01*
X141077006Y-16529486D02*
X140981767Y-16577105D01*
X140981767Y-16577105D02*
X140791291Y-16600914D01*
X140791291Y-16600914D02*
X140457958Y-16600914D01*
X140457958Y-16600914D02*
X140267482Y-16577105D01*
X140267482Y-16577105D02*
X140172244Y-16529486D01*
X140172244Y-16529486D02*
X140124625Y-16481867D01*
X141124625Y-15815200D02*
X141124625Y-16053295D01*
X141124625Y-16053295D02*
X140124625Y-16053295D01*
X140124625Y-15410438D02*
X140124625Y-15648533D01*
X140124625Y-15648533D02*
X140600815Y-15672342D01*
X140600815Y-15672342D02*
X140553196Y-15648533D01*
X140553196Y-15648533D02*
X140505577Y-15600914D01*
X140505577Y-15600914D02*
X140505577Y-15481866D01*
X140505577Y-15481866D02*
X140553196Y-15434247D01*
X140553196Y-15434247D02*
X140600815Y-15410438D01*
X140600815Y-15410438D02*
X140696053Y-15386628D01*
X140696053Y-15386628D02*
X140934148Y-15386628D01*
X140934148Y-15386628D02*
X141029386Y-15410438D01*
X141029386Y-15410438D02*
X141077006Y-15434247D01*
X141077006Y-15434247D02*
X141124625Y-15481866D01*
X141124625Y-15481866D02*
X141124625Y-15600914D01*
X141124625Y-15600914D02*
X141077006Y-15648533D01*
X141077006Y-15648533D02*
X141029386Y-15672342D01*
X153840506Y-37653016D02*
X153888125Y-37581588D01*
X153888125Y-37581588D02*
X153888125Y-37462540D01*
X153888125Y-37462540D02*
X153840506Y-37414921D01*
X153840506Y-37414921D02*
X153792886Y-37391112D01*
X153792886Y-37391112D02*
X153697648Y-37367302D01*
X153697648Y-37367302D02*
X153602410Y-37367302D01*
X153602410Y-37367302D02*
X153507172Y-37391112D01*
X153507172Y-37391112D02*
X153459553Y-37414921D01*
X153459553Y-37414921D02*
X153411934Y-37462540D01*
X153411934Y-37462540D02*
X153364315Y-37557778D01*
X153364315Y-37557778D02*
X153316696Y-37605397D01*
X153316696Y-37605397D02*
X153269077Y-37629207D01*
X153269077Y-37629207D02*
X153173839Y-37653016D01*
X153173839Y-37653016D02*
X153078601Y-37653016D01*
X153078601Y-37653016D02*
X152983363Y-37629207D01*
X152983363Y-37629207D02*
X152935744Y-37605397D01*
X152935744Y-37605397D02*
X152888125Y-37557778D01*
X152888125Y-37557778D02*
X152888125Y-37438731D01*
X152888125Y-37438731D02*
X152935744Y-37367302D01*
X153888125Y-37153017D02*
X152888125Y-37153017D01*
X152888125Y-37153017D02*
X152888125Y-37033969D01*
X152888125Y-37033969D02*
X152935744Y-36962541D01*
X152935744Y-36962541D02*
X153030982Y-36914922D01*
X153030982Y-36914922D02*
X153126220Y-36891112D01*
X153126220Y-36891112D02*
X153316696Y-36867303D01*
X153316696Y-36867303D02*
X153459553Y-36867303D01*
X153459553Y-36867303D02*
X153650029Y-36891112D01*
X153650029Y-36891112D02*
X153745267Y-36914922D01*
X153745267Y-36914922D02*
X153840506Y-36962541D01*
X153840506Y-36962541D02*
X153888125Y-37033969D01*
X153888125Y-37033969D02*
X153888125Y-37153017D01*
X153602410Y-36676826D02*
X153602410Y-36438731D01*
X153888125Y-36724445D02*
X152888125Y-36557779D01*
X152888125Y-36557779D02*
X153888125Y-36391112D01*
X158904625Y-16752081D02*
X158428434Y-16918747D01*
X158904625Y-17037795D02*
X157904625Y-17037795D01*
X157904625Y-17037795D02*
X157904625Y-16847319D01*
X157904625Y-16847319D02*
X157952244Y-16799700D01*
X157952244Y-16799700D02*
X157999863Y-16775890D01*
X157999863Y-16775890D02*
X158095101Y-16752081D01*
X158095101Y-16752081D02*
X158237958Y-16752081D01*
X158237958Y-16752081D02*
X158333196Y-16775890D01*
X158333196Y-16775890D02*
X158380815Y-16799700D01*
X158380815Y-16799700D02*
X158428434Y-16847319D01*
X158428434Y-16847319D02*
X158428434Y-17037795D01*
X158857006Y-16561604D02*
X158904625Y-16490176D01*
X158904625Y-16490176D02*
X158904625Y-16371128D01*
X158904625Y-16371128D02*
X158857006Y-16323509D01*
X158857006Y-16323509D02*
X158809386Y-16299700D01*
X158809386Y-16299700D02*
X158714148Y-16275890D01*
X158714148Y-16275890D02*
X158618910Y-16275890D01*
X158618910Y-16275890D02*
X158523672Y-16299700D01*
X158523672Y-16299700D02*
X158476053Y-16323509D01*
X158476053Y-16323509D02*
X158428434Y-16371128D01*
X158428434Y-16371128D02*
X158380815Y-16466366D01*
X158380815Y-16466366D02*
X158333196Y-16513985D01*
X158333196Y-16513985D02*
X158285577Y-16537795D01*
X158285577Y-16537795D02*
X158190339Y-16561604D01*
X158190339Y-16561604D02*
X158095101Y-16561604D01*
X158095101Y-16561604D02*
X157999863Y-16537795D01*
X157999863Y-16537795D02*
X157952244Y-16513985D01*
X157952244Y-16513985D02*
X157904625Y-16466366D01*
X157904625Y-16466366D02*
X157904625Y-16347319D01*
X157904625Y-16347319D02*
X157952244Y-16275890D01*
X157904625Y-16133033D02*
X157904625Y-15847319D01*
X158904625Y-15990176D02*
X157904625Y-15990176D01*
X151252886Y-16891391D02*
X151300506Y-16915200D01*
X151300506Y-16915200D02*
X151348125Y-16986629D01*
X151348125Y-16986629D02*
X151348125Y-17034248D01*
X151348125Y-17034248D02*
X151300506Y-17105676D01*
X151300506Y-17105676D02*
X151205267Y-17153295D01*
X151205267Y-17153295D02*
X151110029Y-17177105D01*
X151110029Y-17177105D02*
X150919553Y-17200914D01*
X150919553Y-17200914D02*
X150776696Y-17200914D01*
X150776696Y-17200914D02*
X150586220Y-17177105D01*
X150586220Y-17177105D02*
X150490982Y-17153295D01*
X150490982Y-17153295D02*
X150395744Y-17105676D01*
X150395744Y-17105676D02*
X150348125Y-17034248D01*
X150348125Y-17034248D02*
X150348125Y-16986629D01*
X150348125Y-16986629D02*
X150395744Y-16915200D01*
X150395744Y-16915200D02*
X150443363Y-16891391D01*
X150348125Y-16581867D02*
X150348125Y-16486629D01*
X150348125Y-16486629D02*
X150395744Y-16439010D01*
X150395744Y-16439010D02*
X150490982Y-16391391D01*
X150490982Y-16391391D02*
X150681458Y-16367581D01*
X150681458Y-16367581D02*
X151014791Y-16367581D01*
X151014791Y-16367581D02*
X151205267Y-16391391D01*
X151205267Y-16391391D02*
X151300506Y-16439010D01*
X151300506Y-16439010D02*
X151348125Y-16486629D01*
X151348125Y-16486629D02*
X151348125Y-16581867D01*
X151348125Y-16581867D02*
X151300506Y-16629486D01*
X151300506Y-16629486D02*
X151205267Y-16677105D01*
X151205267Y-16677105D02*
X151014791Y-16700914D01*
X151014791Y-16700914D02*
X150681458Y-16700914D01*
X150681458Y-16700914D02*
X150490982Y-16677105D01*
X150490982Y-16677105D02*
X150395744Y-16629486D01*
X150395744Y-16629486D02*
X150348125Y-16581867D01*
X151348125Y-15915200D02*
X151348125Y-16153295D01*
X151348125Y-16153295D02*
X150348125Y-16153295D01*
X151348125Y-15486628D02*
X151348125Y-15772342D01*
X151348125Y-15629485D02*
X150348125Y-15629485D01*
X150348125Y-15629485D02*
X150490982Y-15677104D01*
X150490982Y-15677104D02*
X150586220Y-15724723D01*
X150586220Y-15724723D02*
X150633839Y-15772342D01*
X155533738Y-37300952D02*
X155486119Y-37348571D01*
X155486119Y-37348571D02*
X155486119Y-37420000D01*
X155486119Y-37420000D02*
X155533738Y-37491428D01*
X155533738Y-37491428D02*
X155628976Y-37539047D01*
X155628976Y-37539047D02*
X155724214Y-37562857D01*
X155724214Y-37562857D02*
X155914690Y-37586666D01*
X155914690Y-37586666D02*
X156057547Y-37586666D01*
X156057547Y-37586666D02*
X156248023Y-37562857D01*
X156248023Y-37562857D02*
X156343261Y-37539047D01*
X156343261Y-37539047D02*
X156438500Y-37491428D01*
X156438500Y-37491428D02*
X156486119Y-37420000D01*
X156486119Y-37420000D02*
X156486119Y-37372381D01*
X156486119Y-37372381D02*
X156438500Y-37300952D01*
X156438500Y-37300952D02*
X156390880Y-37277143D01*
X156390880Y-37277143D02*
X156057547Y-37277143D01*
X156057547Y-37277143D02*
X156057547Y-37372381D01*
X156486119Y-37062857D02*
X155486119Y-37062857D01*
X155486119Y-37062857D02*
X156486119Y-36777143D01*
X156486119Y-36777143D02*
X155486119Y-36777143D01*
X156486119Y-36539047D02*
X155486119Y-36539047D01*
X155486119Y-36539047D02*
X155486119Y-36419999D01*
X155486119Y-36419999D02*
X155533738Y-36348571D01*
X155533738Y-36348571D02*
X155628976Y-36300952D01*
X155628976Y-36300952D02*
X155724214Y-36277142D01*
X155724214Y-36277142D02*
X155914690Y-36253333D01*
X155914690Y-36253333D02*
X156057547Y-36253333D01*
X156057547Y-36253333D02*
X156248023Y-36277142D01*
X156248023Y-36277142D02*
X156343261Y-36300952D01*
X156343261Y-36300952D02*
X156438500Y-36348571D01*
X156438500Y-36348571D02*
X156486119Y-36419999D01*
X156486119Y-36419999D02*
X156486119Y-36539047D01*
X164048125Y-37406303D02*
X164048125Y-37644398D01*
X164048125Y-37644398D02*
X163048125Y-37644398D01*
X163524315Y-37239636D02*
X163524315Y-37072969D01*
X164048125Y-37001541D02*
X164048125Y-37239636D01*
X164048125Y-37239636D02*
X163048125Y-37239636D01*
X163048125Y-37239636D02*
X163048125Y-37001541D01*
X164048125Y-36787255D02*
X163048125Y-36787255D01*
X163048125Y-36787255D02*
X163048125Y-36668207D01*
X163048125Y-36668207D02*
X163095744Y-36596779D01*
X163095744Y-36596779D02*
X163190982Y-36549160D01*
X163190982Y-36549160D02*
X163286220Y-36525350D01*
X163286220Y-36525350D02*
X163476696Y-36501541D01*
X163476696Y-36501541D02*
X163619553Y-36501541D01*
X163619553Y-36501541D02*
X163810029Y-36525350D01*
X163810029Y-36525350D02*
X163905267Y-36549160D01*
X163905267Y-36549160D02*
X164000506Y-36596779D01*
X164000506Y-36596779D02*
X164048125Y-36668207D01*
X164048125Y-36668207D02*
X164048125Y-36787255D01*
X135546315Y-16346152D02*
X135593934Y-16274724D01*
X135593934Y-16274724D02*
X135641553Y-16250914D01*
X135641553Y-16250914D02*
X135736791Y-16227105D01*
X135736791Y-16227105D02*
X135879648Y-16227105D01*
X135879648Y-16227105D02*
X135974886Y-16250914D01*
X135974886Y-16250914D02*
X136022506Y-16274724D01*
X136022506Y-16274724D02*
X136070125Y-16322343D01*
X136070125Y-16322343D02*
X136070125Y-16512819D01*
X136070125Y-16512819D02*
X135070125Y-16512819D01*
X135070125Y-16512819D02*
X135070125Y-16346152D01*
X135070125Y-16346152D02*
X135117744Y-16298533D01*
X135117744Y-16298533D02*
X135165363Y-16274724D01*
X135165363Y-16274724D02*
X135260601Y-16250914D01*
X135260601Y-16250914D02*
X135355839Y-16250914D01*
X135355839Y-16250914D02*
X135451077Y-16274724D01*
X135451077Y-16274724D02*
X135498696Y-16298533D01*
X135498696Y-16298533D02*
X135546315Y-16346152D01*
X135546315Y-16346152D02*
X135546315Y-16512819D01*
X135070125Y-15798533D02*
X135070125Y-15893771D01*
X135070125Y-15893771D02*
X135117744Y-15941390D01*
X135117744Y-15941390D02*
X135165363Y-15965200D01*
X135165363Y-15965200D02*
X135308220Y-16012819D01*
X135308220Y-16012819D02*
X135498696Y-16036628D01*
X135498696Y-16036628D02*
X135879648Y-16036628D01*
X135879648Y-16036628D02*
X135974886Y-16012819D01*
X135974886Y-16012819D02*
X136022506Y-15989009D01*
X136022506Y-15989009D02*
X136070125Y-15941390D01*
X136070125Y-15941390D02*
X136070125Y-15846152D01*
X136070125Y-15846152D02*
X136022506Y-15798533D01*
X136022506Y-15798533D02*
X135974886Y-15774724D01*
X135974886Y-15774724D02*
X135879648Y-15750914D01*
X135879648Y-15750914D02*
X135641553Y-15750914D01*
X135641553Y-15750914D02*
X135546315Y-15774724D01*
X135546315Y-15774724D02*
X135498696Y-15798533D01*
X135498696Y-15798533D02*
X135451077Y-15846152D01*
X135451077Y-15846152D02*
X135451077Y-15941390D01*
X135451077Y-15941390D02*
X135498696Y-15989009D01*
X135498696Y-15989009D02*
X135546315Y-16012819D01*
X135546315Y-16012819D02*
X135641553Y-16036628D01*
X146268125Y-37465827D02*
X145791934Y-37632493D01*
X146268125Y-37751541D02*
X145268125Y-37751541D01*
X145268125Y-37751541D02*
X145268125Y-37561065D01*
X145268125Y-37561065D02*
X145315744Y-37513446D01*
X145315744Y-37513446D02*
X145363363Y-37489636D01*
X145363363Y-37489636D02*
X145458601Y-37465827D01*
X145458601Y-37465827D02*
X145601458Y-37465827D01*
X145601458Y-37465827D02*
X145696696Y-37489636D01*
X145696696Y-37489636D02*
X145744315Y-37513446D01*
X145744315Y-37513446D02*
X145791934Y-37561065D01*
X145791934Y-37561065D02*
X145791934Y-37751541D01*
X145268125Y-37156303D02*
X145268125Y-37061065D01*
X145268125Y-37061065D02*
X145315744Y-37013446D01*
X145315744Y-37013446D02*
X145410982Y-36965827D01*
X145410982Y-36965827D02*
X145601458Y-36942017D01*
X145601458Y-36942017D02*
X145934791Y-36942017D01*
X145934791Y-36942017D02*
X146125267Y-36965827D01*
X146125267Y-36965827D02*
X146220506Y-37013446D01*
X146220506Y-37013446D02*
X146268125Y-37061065D01*
X146268125Y-37061065D02*
X146268125Y-37156303D01*
X146268125Y-37156303D02*
X146220506Y-37203922D01*
X146220506Y-37203922D02*
X146125267Y-37251541D01*
X146125267Y-37251541D02*
X145934791Y-37275350D01*
X145934791Y-37275350D02*
X145601458Y-37275350D01*
X145601458Y-37275350D02*
X145410982Y-37251541D01*
X145410982Y-37251541D02*
X145315744Y-37203922D01*
X145315744Y-37203922D02*
X145268125Y-37156303D01*
X145268125Y-36775350D02*
X146268125Y-36656302D01*
X146268125Y-36656302D02*
X145553839Y-36561064D01*
X145553839Y-36561064D02*
X146268125Y-36465826D01*
X146268125Y-36465826D02*
X145268125Y-36346779D01*
X146268125Y-35894397D02*
X146268125Y-36180111D01*
X146268125Y-36037254D02*
X145268125Y-36037254D01*
X145268125Y-36037254D02*
X145410982Y-36084873D01*
X145410982Y-36084873D02*
X145506220Y-36132492D01*
X145506220Y-36132492D02*
X145553839Y-36180111D01*
X143720125Y-37415827D02*
X143243934Y-37582493D01*
X143720125Y-37701541D02*
X142720125Y-37701541D01*
X142720125Y-37701541D02*
X142720125Y-37511065D01*
X142720125Y-37511065D02*
X142767744Y-37463446D01*
X142767744Y-37463446D02*
X142815363Y-37439636D01*
X142815363Y-37439636D02*
X142910601Y-37415827D01*
X142910601Y-37415827D02*
X143053458Y-37415827D01*
X143053458Y-37415827D02*
X143148696Y-37439636D01*
X143148696Y-37439636D02*
X143196315Y-37463446D01*
X143196315Y-37463446D02*
X143243934Y-37511065D01*
X143243934Y-37511065D02*
X143243934Y-37701541D01*
X142720125Y-37106303D02*
X142720125Y-37011065D01*
X142720125Y-37011065D02*
X142767744Y-36963446D01*
X142767744Y-36963446D02*
X142862982Y-36915827D01*
X142862982Y-36915827D02*
X143053458Y-36892017D01*
X143053458Y-36892017D02*
X143386791Y-36892017D01*
X143386791Y-36892017D02*
X143577267Y-36915827D01*
X143577267Y-36915827D02*
X143672506Y-36963446D01*
X143672506Y-36963446D02*
X143720125Y-37011065D01*
X143720125Y-37011065D02*
X143720125Y-37106303D01*
X143720125Y-37106303D02*
X143672506Y-37153922D01*
X143672506Y-37153922D02*
X143577267Y-37201541D01*
X143577267Y-37201541D02*
X143386791Y-37225350D01*
X143386791Y-37225350D02*
X143053458Y-37225350D01*
X143053458Y-37225350D02*
X142862982Y-37201541D01*
X142862982Y-37201541D02*
X142767744Y-37153922D01*
X142767744Y-37153922D02*
X142720125Y-37106303D01*
X142720125Y-36725350D02*
X143720125Y-36606302D01*
X143720125Y-36606302D02*
X143005839Y-36511064D01*
X143005839Y-36511064D02*
X143720125Y-36415826D01*
X143720125Y-36415826D02*
X142720125Y-36296779D01*
X142815363Y-36130111D02*
X142767744Y-36106302D01*
X142767744Y-36106302D02*
X142720125Y-36058683D01*
X142720125Y-36058683D02*
X142720125Y-35939635D01*
X142720125Y-35939635D02*
X142767744Y-35892016D01*
X142767744Y-35892016D02*
X142815363Y-35868207D01*
X142815363Y-35868207D02*
X142910601Y-35844397D01*
X142910601Y-35844397D02*
X143005839Y-35844397D01*
X143005839Y-35844397D02*
X143148696Y-35868207D01*
X143148696Y-35868207D02*
X143720125Y-36153921D01*
X143720125Y-36153921D02*
X143720125Y-35844397D01*
X141124625Y-37415827D02*
X140648434Y-37582493D01*
X141124625Y-37701541D02*
X140124625Y-37701541D01*
X140124625Y-37701541D02*
X140124625Y-37511065D01*
X140124625Y-37511065D02*
X140172244Y-37463446D01*
X140172244Y-37463446D02*
X140219863Y-37439636D01*
X140219863Y-37439636D02*
X140315101Y-37415827D01*
X140315101Y-37415827D02*
X140457958Y-37415827D01*
X140457958Y-37415827D02*
X140553196Y-37439636D01*
X140553196Y-37439636D02*
X140600815Y-37463446D01*
X140600815Y-37463446D02*
X140648434Y-37511065D01*
X140648434Y-37511065D02*
X140648434Y-37701541D01*
X140124625Y-37106303D02*
X140124625Y-37011065D01*
X140124625Y-37011065D02*
X140172244Y-36963446D01*
X140172244Y-36963446D02*
X140267482Y-36915827D01*
X140267482Y-36915827D02*
X140457958Y-36892017D01*
X140457958Y-36892017D02*
X140791291Y-36892017D01*
X140791291Y-36892017D02*
X140981767Y-36915827D01*
X140981767Y-36915827D02*
X141077006Y-36963446D01*
X141077006Y-36963446D02*
X141124625Y-37011065D01*
X141124625Y-37011065D02*
X141124625Y-37106303D01*
X141124625Y-37106303D02*
X141077006Y-37153922D01*
X141077006Y-37153922D02*
X140981767Y-37201541D01*
X140981767Y-37201541D02*
X140791291Y-37225350D01*
X140791291Y-37225350D02*
X140457958Y-37225350D01*
X140457958Y-37225350D02*
X140267482Y-37201541D01*
X140267482Y-37201541D02*
X140172244Y-37153922D01*
X140172244Y-37153922D02*
X140124625Y-37106303D01*
X140124625Y-36725350D02*
X141124625Y-36606302D01*
X141124625Y-36606302D02*
X140410339Y-36511064D01*
X140410339Y-36511064D02*
X141124625Y-36415826D01*
X141124625Y-36415826D02*
X140124625Y-36296779D01*
X140124625Y-36153921D02*
X140124625Y-35844397D01*
X140124625Y-35844397D02*
X140505577Y-36011064D01*
X140505577Y-36011064D02*
X140505577Y-35939635D01*
X140505577Y-35939635D02*
X140553196Y-35892016D01*
X140553196Y-35892016D02*
X140600815Y-35868207D01*
X140600815Y-35868207D02*
X140696053Y-35844397D01*
X140696053Y-35844397D02*
X140934148Y-35844397D01*
X140934148Y-35844397D02*
X141029386Y-35868207D01*
X141029386Y-35868207D02*
X141077006Y-35892016D01*
X141077006Y-35892016D02*
X141124625Y-35939635D01*
X141124625Y-35939635D02*
X141124625Y-36082492D01*
X141124625Y-36082492D02*
X141077006Y-36130111D01*
X141077006Y-36130111D02*
X141029386Y-36153921D01*
X143624886Y-16791391D02*
X143672506Y-16815200D01*
X143672506Y-16815200D02*
X143720125Y-16886629D01*
X143720125Y-16886629D02*
X143720125Y-16934248D01*
X143720125Y-16934248D02*
X143672506Y-17005676D01*
X143672506Y-17005676D02*
X143577267Y-17053295D01*
X143577267Y-17053295D02*
X143482029Y-17077105D01*
X143482029Y-17077105D02*
X143291553Y-17100914D01*
X143291553Y-17100914D02*
X143148696Y-17100914D01*
X143148696Y-17100914D02*
X142958220Y-17077105D01*
X142958220Y-17077105D02*
X142862982Y-17053295D01*
X142862982Y-17053295D02*
X142767744Y-17005676D01*
X142767744Y-17005676D02*
X142720125Y-16934248D01*
X142720125Y-16934248D02*
X142720125Y-16886629D01*
X142720125Y-16886629D02*
X142767744Y-16815200D01*
X142767744Y-16815200D02*
X142815363Y-16791391D01*
X142720125Y-16481867D02*
X142720125Y-16386629D01*
X142720125Y-16386629D02*
X142767744Y-16339010D01*
X142767744Y-16339010D02*
X142862982Y-16291391D01*
X142862982Y-16291391D02*
X143053458Y-16267581D01*
X143053458Y-16267581D02*
X143386791Y-16267581D01*
X143386791Y-16267581D02*
X143577267Y-16291391D01*
X143577267Y-16291391D02*
X143672506Y-16339010D01*
X143672506Y-16339010D02*
X143720125Y-16386629D01*
X143720125Y-16386629D02*
X143720125Y-16481867D01*
X143720125Y-16481867D02*
X143672506Y-16529486D01*
X143672506Y-16529486D02*
X143577267Y-16577105D01*
X143577267Y-16577105D02*
X143386791Y-16600914D01*
X143386791Y-16600914D02*
X143053458Y-16600914D01*
X143053458Y-16600914D02*
X142862982Y-16577105D01*
X142862982Y-16577105D02*
X142767744Y-16529486D01*
X142767744Y-16529486D02*
X142720125Y-16481867D01*
X143720125Y-15815200D02*
X143720125Y-16053295D01*
X143720125Y-16053295D02*
X142720125Y-16053295D01*
X143053458Y-15434247D02*
X143720125Y-15434247D01*
X142672506Y-15553295D02*
X143386791Y-15672342D01*
X143386791Y-15672342D02*
X143386791Y-15362819D01*
X153774886Y-16841391D02*
X153822506Y-16865200D01*
X153822506Y-16865200D02*
X153870125Y-16936629D01*
X153870125Y-16936629D02*
X153870125Y-16984248D01*
X153870125Y-16984248D02*
X153822506Y-17055676D01*
X153822506Y-17055676D02*
X153727267Y-17103295D01*
X153727267Y-17103295D02*
X153632029Y-17127105D01*
X153632029Y-17127105D02*
X153441553Y-17150914D01*
X153441553Y-17150914D02*
X153298696Y-17150914D01*
X153298696Y-17150914D02*
X153108220Y-17127105D01*
X153108220Y-17127105D02*
X153012982Y-17103295D01*
X153012982Y-17103295D02*
X152917744Y-17055676D01*
X152917744Y-17055676D02*
X152870125Y-16984248D01*
X152870125Y-16984248D02*
X152870125Y-16936629D01*
X152870125Y-16936629D02*
X152917744Y-16865200D01*
X152917744Y-16865200D02*
X152965363Y-16841391D01*
X152870125Y-16531867D02*
X152870125Y-16436629D01*
X152870125Y-16436629D02*
X152917744Y-16389010D01*
X152917744Y-16389010D02*
X153012982Y-16341391D01*
X153012982Y-16341391D02*
X153203458Y-16317581D01*
X153203458Y-16317581D02*
X153536791Y-16317581D01*
X153536791Y-16317581D02*
X153727267Y-16341391D01*
X153727267Y-16341391D02*
X153822506Y-16389010D01*
X153822506Y-16389010D02*
X153870125Y-16436629D01*
X153870125Y-16436629D02*
X153870125Y-16531867D01*
X153870125Y-16531867D02*
X153822506Y-16579486D01*
X153822506Y-16579486D02*
X153727267Y-16627105D01*
X153727267Y-16627105D02*
X153536791Y-16650914D01*
X153536791Y-16650914D02*
X153203458Y-16650914D01*
X153203458Y-16650914D02*
X153012982Y-16627105D01*
X153012982Y-16627105D02*
X152917744Y-16579486D01*
X152917744Y-16579486D02*
X152870125Y-16531867D01*
X153870125Y-15865200D02*
X153870125Y-16103295D01*
X153870125Y-16103295D02*
X152870125Y-16103295D01*
X152870125Y-15603295D02*
X152870125Y-15555676D01*
X152870125Y-15555676D02*
X152917744Y-15508057D01*
X152917744Y-15508057D02*
X152965363Y-15484247D01*
X152965363Y-15484247D02*
X153060601Y-15460438D01*
X153060601Y-15460438D02*
X153251077Y-15436628D01*
X153251077Y-15436628D02*
X153489172Y-15436628D01*
X153489172Y-15436628D02*
X153679648Y-15460438D01*
X153679648Y-15460438D02*
X153774886Y-15484247D01*
X153774886Y-15484247D02*
X153822506Y-15508057D01*
X153822506Y-15508057D02*
X153870125Y-15555676D01*
X153870125Y-15555676D02*
X153870125Y-15603295D01*
X153870125Y-15603295D02*
X153822506Y-15650914D01*
X153822506Y-15650914D02*
X153774886Y-15674723D01*
X153774886Y-15674723D02*
X153679648Y-15698533D01*
X153679648Y-15698533D02*
X153489172Y-15722342D01*
X153489172Y-15722342D02*
X153251077Y-15722342D01*
X153251077Y-15722342D02*
X153060601Y-15698533D01*
X153060601Y-15698533D02*
X152965363Y-15674723D01*
X152965363Y-15674723D02*
X152917744Y-15650914D01*
X152917744Y-15650914D02*
X152870125Y-15603295D01*
X155428125Y-17144937D02*
X156428125Y-16978271D01*
X156428125Y-16978271D02*
X155428125Y-16811604D01*
X156332886Y-16359224D02*
X156380506Y-16383033D01*
X156380506Y-16383033D02*
X156428125Y-16454462D01*
X156428125Y-16454462D02*
X156428125Y-16502081D01*
X156428125Y-16502081D02*
X156380506Y-16573509D01*
X156380506Y-16573509D02*
X156285267Y-16621128D01*
X156285267Y-16621128D02*
X156190029Y-16644938D01*
X156190029Y-16644938D02*
X155999553Y-16668747D01*
X155999553Y-16668747D02*
X155856696Y-16668747D01*
X155856696Y-16668747D02*
X155666220Y-16644938D01*
X155666220Y-16644938D02*
X155570982Y-16621128D01*
X155570982Y-16621128D02*
X155475744Y-16573509D01*
X155475744Y-16573509D02*
X155428125Y-16502081D01*
X155428125Y-16502081D02*
X155428125Y-16454462D01*
X155428125Y-16454462D02*
X155475744Y-16383033D01*
X155475744Y-16383033D02*
X155523363Y-16359224D01*
X156332886Y-15859224D02*
X156380506Y-15883033D01*
X156380506Y-15883033D02*
X156428125Y-15954462D01*
X156428125Y-15954462D02*
X156428125Y-16002081D01*
X156428125Y-16002081D02*
X156380506Y-16073509D01*
X156380506Y-16073509D02*
X156285267Y-16121128D01*
X156285267Y-16121128D02*
X156190029Y-16144938D01*
X156190029Y-16144938D02*
X155999553Y-16168747D01*
X155999553Y-16168747D02*
X155856696Y-16168747D01*
X155856696Y-16168747D02*
X155666220Y-16144938D01*
X155666220Y-16144938D02*
X155570982Y-16121128D01*
X155570982Y-16121128D02*
X155475744Y-16073509D01*
X155475744Y-16073509D02*
X155428125Y-16002081D01*
X155428125Y-16002081D02*
X155428125Y-15954462D01*
X155428125Y-15954462D02*
X155475744Y-15883033D01*
X155475744Y-15883033D02*
X155523363Y-15859224D01*
X160555744Y-16859224D02*
X160508125Y-16906843D01*
X160508125Y-16906843D02*
X160508125Y-16978272D01*
X160508125Y-16978272D02*
X160555744Y-17049700D01*
X160555744Y-17049700D02*
X160650982Y-17097319D01*
X160650982Y-17097319D02*
X160746220Y-17121129D01*
X160746220Y-17121129D02*
X160936696Y-17144938D01*
X160936696Y-17144938D02*
X161079553Y-17144938D01*
X161079553Y-17144938D02*
X161270029Y-17121129D01*
X161270029Y-17121129D02*
X161365267Y-17097319D01*
X161365267Y-17097319D02*
X161460506Y-17049700D01*
X161460506Y-17049700D02*
X161508125Y-16978272D01*
X161508125Y-16978272D02*
X161508125Y-16930653D01*
X161508125Y-16930653D02*
X161460506Y-16859224D01*
X161460506Y-16859224D02*
X161412886Y-16835415D01*
X161412886Y-16835415D02*
X161079553Y-16835415D01*
X161079553Y-16835415D02*
X161079553Y-16930653D01*
X161508125Y-16621129D02*
X160508125Y-16621129D01*
X160508125Y-16621129D02*
X161508125Y-16335415D01*
X161508125Y-16335415D02*
X160508125Y-16335415D01*
X161508125Y-16097319D02*
X160508125Y-16097319D01*
X160508125Y-16097319D02*
X160508125Y-15978271D01*
X160508125Y-15978271D02*
X160555744Y-15906843D01*
X160555744Y-15906843D02*
X160650982Y-15859224D01*
X160650982Y-15859224D02*
X160746220Y-15835414D01*
X160746220Y-15835414D02*
X160936696Y-15811605D01*
X160936696Y-15811605D02*
X161079553Y-15811605D01*
X161079553Y-15811605D02*
X161270029Y-15835414D01*
X161270029Y-15835414D02*
X161365267Y-15859224D01*
X161365267Y-15859224D02*
X161460506Y-15906843D01*
X161460506Y-15906843D02*
X161508125Y-15978271D01*
X161508125Y-15978271D02*
X161508125Y-16097319D01*
X146124886Y-16741391D02*
X146172506Y-16765200D01*
X146172506Y-16765200D02*
X146220125Y-16836629D01*
X146220125Y-16836629D02*
X146220125Y-16884248D01*
X146220125Y-16884248D02*
X146172506Y-16955676D01*
X146172506Y-16955676D02*
X146077267Y-17003295D01*
X146077267Y-17003295D02*
X145982029Y-17027105D01*
X145982029Y-17027105D02*
X145791553Y-17050914D01*
X145791553Y-17050914D02*
X145648696Y-17050914D01*
X145648696Y-17050914D02*
X145458220Y-17027105D01*
X145458220Y-17027105D02*
X145362982Y-17003295D01*
X145362982Y-17003295D02*
X145267744Y-16955676D01*
X145267744Y-16955676D02*
X145220125Y-16884248D01*
X145220125Y-16884248D02*
X145220125Y-16836629D01*
X145220125Y-16836629D02*
X145267744Y-16765200D01*
X145267744Y-16765200D02*
X145315363Y-16741391D01*
X145220125Y-16431867D02*
X145220125Y-16336629D01*
X145220125Y-16336629D02*
X145267744Y-16289010D01*
X145267744Y-16289010D02*
X145362982Y-16241391D01*
X145362982Y-16241391D02*
X145553458Y-16217581D01*
X145553458Y-16217581D02*
X145886791Y-16217581D01*
X145886791Y-16217581D02*
X146077267Y-16241391D01*
X146077267Y-16241391D02*
X146172506Y-16289010D01*
X146172506Y-16289010D02*
X146220125Y-16336629D01*
X146220125Y-16336629D02*
X146220125Y-16431867D01*
X146220125Y-16431867D02*
X146172506Y-16479486D01*
X146172506Y-16479486D02*
X146077267Y-16527105D01*
X146077267Y-16527105D02*
X145886791Y-16550914D01*
X145886791Y-16550914D02*
X145553458Y-16550914D01*
X145553458Y-16550914D02*
X145362982Y-16527105D01*
X145362982Y-16527105D02*
X145267744Y-16479486D01*
X145267744Y-16479486D02*
X145220125Y-16431867D01*
X146220125Y-15765200D02*
X146220125Y-16003295D01*
X146220125Y-16003295D02*
X145220125Y-16003295D01*
X145220125Y-15646152D02*
X145220125Y-15336628D01*
X145220125Y-15336628D02*
X145601077Y-15503295D01*
X145601077Y-15503295D02*
X145601077Y-15431866D01*
X145601077Y-15431866D02*
X145648696Y-15384247D01*
X145648696Y-15384247D02*
X145696315Y-15360438D01*
X145696315Y-15360438D02*
X145791553Y-15336628D01*
X145791553Y-15336628D02*
X146029648Y-15336628D01*
X146029648Y-15336628D02*
X146124886Y-15360438D01*
X146124886Y-15360438D02*
X146172506Y-15384247D01*
X146172506Y-15384247D02*
X146220125Y-15431866D01*
X146220125Y-15431866D02*
X146220125Y-15574723D01*
X146220125Y-15574723D02*
X146172506Y-15622342D01*
X146172506Y-15622342D02*
X146124886Y-15646152D01*
X164048125Y-16823510D02*
X163571934Y-16990176D01*
X164048125Y-17109224D02*
X163048125Y-17109224D01*
X163048125Y-17109224D02*
X163048125Y-16918748D01*
X163048125Y-16918748D02*
X163095744Y-16871129D01*
X163095744Y-16871129D02*
X163143363Y-16847319D01*
X163143363Y-16847319D02*
X163238601Y-16823510D01*
X163238601Y-16823510D02*
X163381458Y-16823510D01*
X163381458Y-16823510D02*
X163476696Y-16847319D01*
X163476696Y-16847319D02*
X163524315Y-16871129D01*
X163524315Y-16871129D02*
X163571934Y-16918748D01*
X163571934Y-16918748D02*
X163571934Y-17109224D01*
X163762410Y-16633033D02*
X163762410Y-16394938D01*
X164048125Y-16680652D02*
X163048125Y-16513986D01*
X163048125Y-16513986D02*
X164048125Y-16347319D01*
X163048125Y-16228272D02*
X164048125Y-16109224D01*
X164048125Y-16109224D02*
X163333839Y-16013986D01*
X163333839Y-16013986D02*
X164048125Y-15918748D01*
X164048125Y-15918748D02*
X163048125Y-15799701D01*
X151300506Y-37641112D02*
X151348125Y-37569684D01*
X151348125Y-37569684D02*
X151348125Y-37450636D01*
X151348125Y-37450636D02*
X151300506Y-37403017D01*
X151300506Y-37403017D02*
X151252886Y-37379208D01*
X151252886Y-37379208D02*
X151157648Y-37355398D01*
X151157648Y-37355398D02*
X151062410Y-37355398D01*
X151062410Y-37355398D02*
X150967172Y-37379208D01*
X150967172Y-37379208D02*
X150919553Y-37403017D01*
X150919553Y-37403017D02*
X150871934Y-37450636D01*
X150871934Y-37450636D02*
X150824315Y-37545874D01*
X150824315Y-37545874D02*
X150776696Y-37593493D01*
X150776696Y-37593493D02*
X150729077Y-37617303D01*
X150729077Y-37617303D02*
X150633839Y-37641112D01*
X150633839Y-37641112D02*
X150538601Y-37641112D01*
X150538601Y-37641112D02*
X150443363Y-37617303D01*
X150443363Y-37617303D02*
X150395744Y-37593493D01*
X150395744Y-37593493D02*
X150348125Y-37545874D01*
X150348125Y-37545874D02*
X150348125Y-37426827D01*
X150348125Y-37426827D02*
X150395744Y-37355398D01*
X151252886Y-36855399D02*
X151300506Y-36879208D01*
X151300506Y-36879208D02*
X151348125Y-36950637D01*
X151348125Y-36950637D02*
X151348125Y-36998256D01*
X151348125Y-36998256D02*
X151300506Y-37069684D01*
X151300506Y-37069684D02*
X151205267Y-37117303D01*
X151205267Y-37117303D02*
X151110029Y-37141113D01*
X151110029Y-37141113D02*
X150919553Y-37164922D01*
X150919553Y-37164922D02*
X150776696Y-37164922D01*
X150776696Y-37164922D02*
X150586220Y-37141113D01*
X150586220Y-37141113D02*
X150490982Y-37117303D01*
X150490982Y-37117303D02*
X150395744Y-37069684D01*
X150395744Y-37069684D02*
X150348125Y-36998256D01*
X150348125Y-36998256D02*
X150348125Y-36950637D01*
X150348125Y-36950637D02*
X150395744Y-36879208D01*
X150395744Y-36879208D02*
X150443363Y-36855399D01*
X151348125Y-36403018D02*
X151348125Y-36641113D01*
X151348125Y-36641113D02*
X150348125Y-36641113D01*
X148770125Y-37415827D02*
X148293934Y-37582493D01*
X148770125Y-37701541D02*
X147770125Y-37701541D01*
X147770125Y-37701541D02*
X147770125Y-37511065D01*
X147770125Y-37511065D02*
X147817744Y-37463446D01*
X147817744Y-37463446D02*
X147865363Y-37439636D01*
X147865363Y-37439636D02*
X147960601Y-37415827D01*
X147960601Y-37415827D02*
X148103458Y-37415827D01*
X148103458Y-37415827D02*
X148198696Y-37439636D01*
X148198696Y-37439636D02*
X148246315Y-37463446D01*
X148246315Y-37463446D02*
X148293934Y-37511065D01*
X148293934Y-37511065D02*
X148293934Y-37701541D01*
X147770125Y-37106303D02*
X147770125Y-37011065D01*
X147770125Y-37011065D02*
X147817744Y-36963446D01*
X147817744Y-36963446D02*
X147912982Y-36915827D01*
X147912982Y-36915827D02*
X148103458Y-36892017D01*
X148103458Y-36892017D02*
X148436791Y-36892017D01*
X148436791Y-36892017D02*
X148627267Y-36915827D01*
X148627267Y-36915827D02*
X148722506Y-36963446D01*
X148722506Y-36963446D02*
X148770125Y-37011065D01*
X148770125Y-37011065D02*
X148770125Y-37106303D01*
X148770125Y-37106303D02*
X148722506Y-37153922D01*
X148722506Y-37153922D02*
X148627267Y-37201541D01*
X148627267Y-37201541D02*
X148436791Y-37225350D01*
X148436791Y-37225350D02*
X148103458Y-37225350D01*
X148103458Y-37225350D02*
X147912982Y-37201541D01*
X147912982Y-37201541D02*
X147817744Y-37153922D01*
X147817744Y-37153922D02*
X147770125Y-37106303D01*
X147770125Y-36725350D02*
X148770125Y-36606302D01*
X148770125Y-36606302D02*
X148055839Y-36511064D01*
X148055839Y-36511064D02*
X148770125Y-36415826D01*
X148770125Y-36415826D02*
X147770125Y-36296779D01*
X147770125Y-36011064D02*
X147770125Y-35963445D01*
X147770125Y-35963445D02*
X147817744Y-35915826D01*
X147817744Y-35915826D02*
X147865363Y-35892016D01*
X147865363Y-35892016D02*
X147960601Y-35868207D01*
X147960601Y-35868207D02*
X148151077Y-35844397D01*
X148151077Y-35844397D02*
X148389172Y-35844397D01*
X148389172Y-35844397D02*
X148579648Y-35868207D01*
X148579648Y-35868207D02*
X148674886Y-35892016D01*
X148674886Y-35892016D02*
X148722506Y-35915826D01*
X148722506Y-35915826D02*
X148770125Y-35963445D01*
X148770125Y-35963445D02*
X148770125Y-36011064D01*
X148770125Y-36011064D02*
X148722506Y-36058683D01*
X148722506Y-36058683D02*
X148674886Y-36082492D01*
X148674886Y-36082492D02*
X148579648Y-36106302D01*
X148579648Y-36106302D02*
X148389172Y-36130111D01*
X148389172Y-36130111D02*
X148151077Y-36130111D01*
X148151077Y-36130111D02*
X147960601Y-36106302D01*
X147960601Y-36106302D02*
X147865363Y-36082492D01*
X147865363Y-36082492D02*
X147817744Y-36058683D01*
X147817744Y-36058683D02*
X147770125Y-36011064D01*
D11*
X128323679Y-27656152D02*
X128323679Y-27465676D01*
X128323679Y-27465676D02*
X128371298Y-27370438D01*
X128371298Y-27370438D02*
X128466536Y-27275200D01*
X128466536Y-27275200D02*
X128657012Y-27227581D01*
X128657012Y-27227581D02*
X128990345Y-27227581D01*
X128990345Y-27227581D02*
X129180821Y-27275200D01*
X129180821Y-27275200D02*
X129276060Y-27370438D01*
X129276060Y-27370438D02*
X129323679Y-27465676D01*
X129323679Y-27465676D02*
X129323679Y-27656152D01*
X129323679Y-27656152D02*
X129276060Y-27751390D01*
X129276060Y-27751390D02*
X129180821Y-27846628D01*
X129180821Y-27846628D02*
X128990345Y-27894247D01*
X128990345Y-27894247D02*
X128657012Y-27894247D01*
X128657012Y-27894247D02*
X128466536Y-27846628D01*
X128466536Y-27846628D02*
X128371298Y-27751390D01*
X128371298Y-27751390D02*
X128323679Y-27656152D01*
X129323679Y-26322819D02*
X129323679Y-26799009D01*
X129323679Y-26799009D02*
X128323679Y-26799009D01*
X128799869Y-25989485D02*
X128799869Y-25656152D01*
X129323679Y-25513295D02*
X129323679Y-25989485D01*
X129323679Y-25989485D02*
X128323679Y-25989485D01*
X128323679Y-25989485D02*
X128323679Y-25513295D01*
X129323679Y-25084723D02*
X128323679Y-25084723D01*
X128323679Y-25084723D02*
X128323679Y-24846628D01*
X128323679Y-24846628D02*
X128371298Y-24703771D01*
X128371298Y-24703771D02*
X128466536Y-24608533D01*
X128466536Y-24608533D02*
X128561774Y-24560914D01*
X128561774Y-24560914D02*
X128752250Y-24513295D01*
X128752250Y-24513295D02*
X128895107Y-24513295D01*
X128895107Y-24513295D02*
X129085583Y-24560914D01*
X129085583Y-24560914D02*
X129180821Y-24608533D01*
X129180821Y-24608533D02*
X129276060Y-24703771D01*
X129276060Y-24703771D02*
X129323679Y-24846628D01*
X129323679Y-24846628D02*
X129323679Y-25084723D01*
X164862006Y-17360172D02*
X164862006Y-19900172D01*
X134382006Y-17360172D02*
X164862006Y-17360172D01*
X164862006Y-19900172D02*
X134382006Y-19900172D01*
X134382006Y-19900172D02*
X134382006Y-17360172D01*
X164862006Y-32580172D02*
X164862006Y-35120172D01*
X134382006Y-32580172D02*
X164862006Y-32580172D01*
X164862006Y-35120172D02*
X134382006Y-35120172D01*
X134382006Y-35120172D02*
X134382006Y-32580172D01*
X129698860Y-31273772D02*
X129698860Y-21113772D01*
X132238860Y-31273772D02*
X129698860Y-31273772D01*
X132238860Y-31273772D02*
X132238860Y-21113772D01*
X129698860Y-21113772D02*
X132238860Y-21113772D01*
D12*
X28257500Y-133350000D03*
D13*
X33337500Y-133350000D03*
D12*
X38417500Y-133350000D03*
D14*
X60721926Y-89524133D03*
D15*
X60721926Y-81904133D03*
D12*
X47307500Y-33337500D03*
D13*
X52387500Y-33337500D03*
D12*
X57467500Y-33337500D03*
X87788750Y-95250000D03*
D13*
X92868750Y-95250000D03*
D12*
X97948750Y-95250000D03*
D14*
X60721926Y-120502287D03*
D15*
X60721926Y-112882287D03*
D12*
X66357500Y-64293750D03*
D13*
X71437500Y-64293750D03*
D12*
X76517500Y-64293750D03*
X28257500Y-114300000D03*
D13*
X33337500Y-114300000D03*
D12*
X38417500Y-114300000D03*
X125888750Y-76200000D03*
D13*
X130968750Y-76200000D03*
D12*
X136048750Y-76200000D03*
D14*
X79248000Y-139446000D03*
D15*
X79248000Y-131826000D03*
D12*
X66357500Y-83343750D03*
D13*
X71437500Y-83343750D03*
D12*
X76517500Y-83343750D03*
D14*
X120130000Y-39530000D03*
D15*
X120130000Y-31910000D03*
D12*
X106838750Y-57150000D03*
D13*
X111918750Y-57150000D03*
D12*
X116998750Y-57150000D03*
D14*
X60452000Y-139446000D03*
D15*
X60452000Y-131826000D03*
D12*
X66357500Y-133350000D03*
D13*
X71437500Y-133350000D03*
D12*
X76517500Y-133350000D03*
D14*
X41671910Y-120502287D03*
D15*
X41671910Y-112882287D03*
D14*
X158353258Y-101523626D03*
D15*
X158353258Y-93903626D03*
D14*
X79771942Y-120502287D03*
D15*
X79771942Y-112882287D03*
D14*
X101092000Y-39627000D03*
D15*
X101092000Y-32007000D03*
D14*
X158353258Y-82402255D03*
D15*
X158353258Y-74782255D03*
D14*
X41656000Y-39530000D03*
D15*
X41656000Y-31910000D03*
D14*
X139303242Y-101452271D03*
D15*
X139303242Y-93832271D03*
D14*
X60786177Y-70538904D03*
D15*
X60786177Y-62918904D03*
D14*
X41671910Y-89546011D03*
D15*
X41671910Y-81926011D03*
D12*
X47307500Y-83343750D03*
D13*
X52387500Y-83343750D03*
D12*
X57467500Y-83343750D03*
X87788750Y-57150000D03*
D13*
X92868750Y-57150000D03*
D12*
X97948750Y-57150000D03*
X144938750Y-114300000D03*
D13*
X150018750Y-114300000D03*
D12*
X155098750Y-114300000D03*
D14*
X101203210Y-82380377D03*
D15*
X101203210Y-74760377D03*
D14*
X120253226Y-82402255D03*
D15*
X120253226Y-74782255D03*
D12*
X125888750Y-95250000D03*
D13*
X130968750Y-95250000D03*
D12*
X136048750Y-95250000D03*
D16*
X163592006Y-33850172D03*
X161052006Y-33850172D03*
X158512006Y-33850172D03*
X155972006Y-33850172D03*
X153432006Y-33850172D03*
X150892006Y-33850172D03*
X148352006Y-33850172D03*
X145812006Y-33850172D03*
X143272006Y-33850172D03*
X140732006Y-33850172D03*
X138192006Y-33850172D03*
X135652006Y-33850172D03*
X135652006Y-18630172D03*
X138192006Y-18630172D03*
X140732006Y-18630172D03*
X143272006Y-18630172D03*
X145812006Y-18630172D03*
X148352006Y-18630172D03*
X150892006Y-18630172D03*
X153432006Y-18630172D03*
X155972006Y-18630172D03*
X158512006Y-18630172D03*
X161052006Y-18630172D03*
X163592006Y-18630172D03*
D12*
X131564173Y-17264077D03*
X125064173Y-17264077D03*
X87788750Y-133350000D03*
D13*
X92868750Y-133350000D03*
D12*
X97948750Y-133350000D03*
D14*
X101203210Y-101452271D03*
D15*
X101203210Y-93832271D03*
X130968860Y-30003772D03*
X130968860Y-27463772D03*
X130968860Y-24923772D03*
X130968860Y-22383772D03*
D14*
X79756000Y-70615000D03*
D15*
X79756000Y-62995000D03*
D12*
X66357500Y-33337500D03*
D13*
X71437500Y-33337500D03*
D12*
X76517500Y-33337500D03*
X87788750Y-114300000D03*
D13*
X92868750Y-114300000D03*
D12*
X97948750Y-114300000D03*
D14*
X158353258Y-120491348D03*
D15*
X158353258Y-112871348D03*
D12*
X106838750Y-95250000D03*
D13*
X111918750Y-95250000D03*
D12*
X116998750Y-95250000D03*
D14*
X139303242Y-139544252D03*
D15*
X139303242Y-131924252D03*
D12*
X125888750Y-114300000D03*
D13*
X130968750Y-114300000D03*
D12*
X136048750Y-114300000D03*
X125888750Y-133350000D03*
D13*
X130968750Y-133350000D03*
D12*
X136048750Y-133350000D03*
X144938750Y-133350000D03*
D13*
X150018750Y-133350000D03*
D12*
X155098750Y-133350000D03*
D14*
X41656000Y-70615000D03*
D15*
X41656000Y-62995000D03*
D14*
X120253226Y-101603000D03*
D15*
X120253226Y-93983000D03*
D14*
X120253226Y-139552303D03*
D15*
X120253226Y-131932303D03*
D12*
X87788750Y-76200000D03*
D13*
X92868750Y-76200000D03*
D12*
X97948750Y-76200000D03*
D14*
X79771942Y-89546011D03*
D15*
X79771942Y-81926011D03*
D14*
X60694000Y-39530000D03*
D15*
X60694000Y-31910000D03*
D14*
X79756000Y-39624000D03*
D15*
X79756000Y-32004000D03*
D14*
X158353258Y-63344250D03*
D15*
X158353258Y-55724250D03*
D12*
X144938750Y-76200000D03*
D13*
X150018750Y-76200000D03*
D12*
X155098750Y-76200000D03*
X106838750Y-133350000D03*
D13*
X111918750Y-133350000D03*
D12*
X116998750Y-133350000D03*
D14*
X101203210Y-139552303D03*
D15*
X101203210Y-131932303D03*
D14*
X139303242Y-120502287D03*
D15*
X139303242Y-112882287D03*
D12*
X28257500Y-83343750D03*
D13*
X33337500Y-83343750D03*
D12*
X38417500Y-83343750D03*
X47307500Y-64293750D03*
D13*
X52387500Y-64293750D03*
D12*
X57467500Y-64293750D03*
D14*
X120253226Y-120502287D03*
D15*
X120253226Y-112882287D03*
D14*
X139160250Y-63352239D03*
D15*
X139160250Y-55732239D03*
D12*
X66357500Y-114300000D03*
D13*
X71437500Y-114300000D03*
D12*
X76517500Y-114300000D03*
D14*
X101203210Y-63341300D03*
D15*
X101203210Y-55721300D03*
D12*
X47307500Y-133350000D03*
D13*
X52387500Y-133350000D03*
D12*
X57467500Y-133350000D03*
D14*
X41148000Y-139703000D03*
D15*
X41148000Y-132083000D03*
D12*
X125888750Y-57150000D03*
D13*
X130968750Y-57150000D03*
D12*
X136048750Y-57150000D03*
X87788750Y-33337500D03*
D13*
X92868750Y-33337500D03*
D12*
X97948750Y-33337500D03*
X28257500Y-64293750D03*
D13*
X33337500Y-64293750D03*
D12*
X38417500Y-64293750D03*
X47307500Y-114300000D03*
D13*
X52387500Y-114300000D03*
D12*
X57467500Y-114300000D03*
D14*
X101203210Y-120502287D03*
D15*
X101203210Y-112882287D03*
D12*
X106838750Y-114300000D03*
D13*
X111918750Y-114300000D03*
D12*
X116998750Y-114300000D03*
X144938750Y-57150000D03*
D13*
X150018750Y-57150000D03*
D12*
X155098750Y-57150000D03*
D14*
X139303242Y-82402255D03*
D15*
X139303242Y-74782255D03*
D12*
X144938750Y-95250000D03*
D13*
X150018750Y-95250000D03*
D12*
X155098750Y-95250000D03*
D14*
X158353258Y-139552303D03*
D15*
X158353258Y-131932303D03*
D12*
X28257500Y-33337500D03*
D13*
X33337500Y-33337500D03*
D12*
X38417500Y-33337500D03*
X116998750Y-33337500D03*
D13*
X111918750Y-33337500D03*
D12*
X106838750Y-33337500D03*
X106838750Y-76200000D03*
D13*
X111918750Y-76200000D03*
D12*
X116998750Y-76200000D03*
D14*
X120253226Y-63246000D03*
D15*
X120253226Y-55626000D03*
M02*
