G04 #@! TF.GenerationSoftware,KiCad,Pcbnew,7.0.6*
G04 #@! TF.CreationDate,2023-08-25T23:20:30+09:00*
G04 #@! TF.ProjectId,yamata37,79616d61-7461-4333-972e-6b696361645f,rev?*
G04 #@! TF.SameCoordinates,Original*
G04 #@! TF.FileFunction,Copper,L1,Top*
G04 #@! TF.FilePolarity,Positive*
%FSLAX46Y46*%
G04 Gerber Fmt 4.6, Leading zero omitted, Abs format (unit mm)*
G04 Created by KiCad (PCBNEW 7.0.6) date 2023-08-25 23:20:30*
%MOMM*%
%LPD*%
G01*
G04 APERTURE LIST*
G04 #@! TA.AperFunction,ComponentPad*
%ADD10R,1.397000X1.397000*%
G04 #@! TD*
G04 #@! TA.AperFunction,ComponentPad*
%ADD11C,1.397000*%
G04 #@! TD*
G04 #@! TA.AperFunction,ComponentPad*
%ADD12C,1.524000*%
G04 #@! TD*
G04 #@! TA.AperFunction,ComponentPad*
%ADD13C,2.000000*%
G04 #@! TD*
G04 #@! TA.AperFunction,ViaPad*
%ADD14C,0.800000*%
G04 #@! TD*
G04 #@! TA.AperFunction,Conductor*
%ADD15C,0.500000*%
G04 #@! TD*
G04 APERTURE END LIST*
D10*
X60721926Y-89524133D03*
D11*
X60721926Y-81904133D03*
D10*
X60721926Y-120502287D03*
D11*
X60721926Y-112882287D03*
D10*
X79248000Y-139446000D03*
D11*
X79248000Y-131826000D03*
D10*
X120130000Y-39530000D03*
D11*
X120130000Y-31910000D03*
D10*
X60452000Y-139446000D03*
D11*
X60452000Y-131826000D03*
D10*
X41671910Y-120502287D03*
D11*
X41671910Y-112882287D03*
D10*
X158353258Y-101523626D03*
D11*
X158353258Y-93903626D03*
D10*
X79771942Y-120502287D03*
D11*
X79771942Y-112882287D03*
D10*
X101092000Y-39627000D03*
D11*
X101092000Y-32007000D03*
D10*
X158353258Y-82402255D03*
D11*
X158353258Y-74782255D03*
D10*
X41656000Y-39530000D03*
D11*
X41656000Y-31910000D03*
D10*
X139303242Y-101452271D03*
D11*
X139303242Y-93832271D03*
D10*
X60786177Y-70538904D03*
D11*
X60786177Y-62918904D03*
D10*
X41671910Y-89546011D03*
D11*
X41671910Y-81926011D03*
D10*
X101203210Y-82380377D03*
D11*
X101203210Y-74760377D03*
D10*
X120253226Y-82402255D03*
D11*
X120253226Y-74782255D03*
D12*
X163592006Y-33850172D03*
X161052006Y-33850172D03*
X158512006Y-33850172D03*
X155972006Y-33850172D03*
X153432006Y-33850172D03*
X150892006Y-33850172D03*
X148352006Y-33850172D03*
X145812006Y-33850172D03*
X143272006Y-33850172D03*
X140732006Y-33850172D03*
X138192006Y-33850172D03*
X135652006Y-33850172D03*
X135652006Y-18630172D03*
X138192006Y-18630172D03*
X140732006Y-18630172D03*
X143272006Y-18630172D03*
X145812006Y-18630172D03*
X148352006Y-18630172D03*
X150892006Y-18630172D03*
X153432006Y-18630172D03*
X155972006Y-18630172D03*
X158512006Y-18630172D03*
X161052006Y-18630172D03*
X163592006Y-18630172D03*
D13*
X131564173Y-17264077D03*
X125064173Y-17264077D03*
D10*
X101203210Y-101452271D03*
D11*
X101203210Y-93832271D03*
X130968860Y-30003772D03*
X130968860Y-27463772D03*
X130968860Y-24923772D03*
X130968860Y-22383772D03*
D10*
X79756000Y-70615000D03*
D11*
X79756000Y-62995000D03*
D10*
X158353258Y-120491348D03*
D11*
X158353258Y-112871348D03*
D10*
X139303242Y-139544252D03*
D11*
X139303242Y-131924252D03*
D10*
X41656000Y-70615000D03*
D11*
X41656000Y-62995000D03*
D10*
X120253226Y-101603000D03*
D11*
X120253226Y-93983000D03*
D10*
X120253226Y-139552303D03*
D11*
X120253226Y-131932303D03*
D10*
X79771942Y-89546011D03*
D11*
X79771942Y-81926011D03*
D10*
X60694000Y-39530000D03*
D11*
X60694000Y-31910000D03*
D10*
X79756000Y-39624000D03*
D11*
X79756000Y-32004000D03*
D10*
X158353258Y-63344250D03*
D11*
X158353258Y-55724250D03*
D10*
X101203210Y-139552303D03*
D11*
X101203210Y-131932303D03*
D10*
X139303242Y-120502287D03*
D11*
X139303242Y-112882287D03*
D10*
X120253226Y-120502287D03*
D11*
X120253226Y-112882287D03*
D10*
X139160250Y-63352239D03*
D11*
X139160250Y-55732239D03*
D10*
X101203210Y-63341300D03*
D11*
X101203210Y-55721300D03*
D10*
X41148000Y-139703000D03*
D11*
X41148000Y-132083000D03*
D10*
X101203210Y-120502287D03*
D11*
X101203210Y-112882287D03*
D10*
X139303242Y-82402255D03*
D11*
X139303242Y-74782255D03*
D10*
X158353258Y-139552303D03*
D11*
X158353258Y-131932303D03*
D10*
X120253226Y-63246000D03*
D11*
X120253226Y-55626000D03*
D14*
X157205688Y-44665688D03*
X43860000Y-40533500D03*
X58180000Y-40570000D03*
X85890000Y-34780000D03*
X85890000Y-36880000D03*
X143440000Y-27850500D03*
X74180000Y-93400000D03*
X74170000Y-75210000D03*
X57450000Y-142420000D03*
X66850000Y-142410000D03*
X66560000Y-73090000D03*
X58880000Y-73250000D03*
X66200000Y-43430000D03*
X74170000Y-41910000D03*
X65980000Y-92330000D03*
X87490000Y-42040000D03*
X74210000Y-144280000D03*
X74160000Y-124450000D03*
X66430000Y-122660000D03*
X29400000Y-142360000D03*
X35990000Y-144280000D03*
X29890000Y-123440000D03*
X36190000Y-124550000D03*
X29610000Y-92390000D03*
X35980000Y-93500000D03*
X29888028Y-73340000D03*
X35980000Y-74440000D03*
X35980000Y-42570000D03*
X28220000Y-43470000D03*
X128770000Y-36020000D03*
X123910000Y-39210000D03*
X120800000Y-41290000D03*
X120879500Y-43920000D03*
X118790000Y-43710000D03*
X118990000Y-48360000D03*
X103260000Y-61900000D03*
X103260000Y-67949500D03*
X103160000Y-81870000D03*
X103200000Y-87140000D03*
X103200000Y-101310000D03*
X103290000Y-106110000D03*
X136110000Y-49220000D03*
X125800000Y-51340000D03*
X122710000Y-51340000D03*
X121920000Y-62340000D03*
X122070715Y-68070818D03*
X122230500Y-81460000D03*
X122480000Y-87100000D03*
X141520000Y-48150000D03*
X123070000Y-62570000D03*
X123070000Y-68050000D03*
X145730000Y-48110000D03*
X85100000Y-64820000D03*
X84960000Y-67889500D03*
X148530000Y-39139500D03*
X93700000Y-144810000D03*
X104930000Y-144860000D03*
X106270000Y-142220000D03*
X114460000Y-143810000D03*
X107060000Y-123050000D03*
X114630000Y-124340000D03*
X107060000Y-103970000D03*
X114680000Y-105059500D03*
X106730000Y-85120000D03*
X114730000Y-86090000D03*
X106690000Y-66080000D03*
X114590000Y-67050000D03*
X106660000Y-46940000D03*
X114630000Y-42370000D03*
X126960000Y-49570000D03*
X128565063Y-51175063D03*
X145190000Y-142330000D03*
X152710000Y-143810000D03*
X145260000Y-123060000D03*
X152880000Y-124310000D03*
X145050000Y-104080000D03*
X152670000Y-105180000D03*
X144770000Y-85090000D03*
X152750000Y-86090000D03*
X144290000Y-66170000D03*
X152700000Y-67100000D03*
X162765623Y-39100000D03*
X157200000Y-49570000D03*
X163020000Y-49430000D03*
X162950000Y-65090000D03*
X158090000Y-65200000D03*
X135710000Y-38290000D03*
X161900000Y-48350000D03*
X159650000Y-38290000D03*
X159160500Y-48290000D03*
X161850000Y-141210000D03*
X137230000Y-123130000D03*
X160070000Y-104210000D03*
X99360000Y-47180000D03*
X81630000Y-73250000D03*
X137100000Y-104130000D03*
X99040000Y-123140000D03*
X99300000Y-66200000D03*
X103990000Y-47180000D03*
X160070000Y-142390000D03*
X95460000Y-43400000D03*
X160070000Y-66200000D03*
X154910000Y-24890000D03*
X81660000Y-123410000D03*
X59680000Y-43440000D03*
X58530000Y-123490000D03*
X81700000Y-66120000D03*
X137590000Y-66250000D03*
X58880000Y-92570000D03*
X99420000Y-85190000D03*
X133370000Y-24923772D03*
X81740000Y-142520000D03*
X137380000Y-142270000D03*
X81620000Y-92510000D03*
X137470000Y-85170000D03*
X160070000Y-123210000D03*
X99120000Y-104210000D03*
X133440000Y-47180000D03*
X160070000Y-47210000D03*
X99420000Y-142380000D03*
X160070000Y-85210000D03*
X88470000Y-124290000D03*
X82690000Y-74410000D03*
X126660000Y-143810000D03*
X48820000Y-93480000D03*
X160710000Y-46320000D03*
X153100000Y-46190000D03*
X88830000Y-143810000D03*
X48460000Y-74410000D03*
X125840000Y-86090000D03*
X82680000Y-143400000D03*
X82690000Y-67080000D03*
X121910000Y-42520000D03*
X88620000Y-67040000D03*
X132470000Y-46330500D03*
X48650000Y-144280000D03*
X88960000Y-86170000D03*
X126460000Y-105140000D03*
X82690000Y-124530000D03*
X88310000Y-105140000D03*
X46840000Y-42040000D03*
X82690000Y-93290000D03*
X160920000Y-105140000D03*
X126160000Y-67100000D03*
X160920000Y-124320000D03*
X48680000Y-124530000D03*
X160920000Y-86090000D03*
X160920000Y-67030000D03*
X154360000Y-46310000D03*
X126070000Y-124320000D03*
X160920000Y-143820000D03*
X147180000Y-24074272D03*
X27350000Y-23050000D03*
X147210000Y-27550000D03*
X149600000Y-24074272D03*
X134380000Y-32520000D03*
X149330000Y-23089500D03*
X134360000Y-26970000D03*
X45750000Y-26180001D03*
X144470000Y-26720000D03*
X144470000Y-23089500D03*
X132360000Y-31640000D03*
X65380000Y-25350000D03*
X148410000Y-25867994D03*
X132420000Y-25870000D03*
X145860000Y-23980000D03*
X135350000Y-23960000D03*
X131430000Y-20020000D03*
X121620000Y-24340000D03*
X123910000Y-19919500D03*
X87320000Y-24110000D03*
X122850000Y-19070000D03*
X131870000Y-19070000D03*
X143270000Y-23089500D03*
X136090000Y-23130500D03*
X162000000Y-23000000D03*
X140770000Y-22150000D03*
X131620000Y-37260000D03*
X162000000Y-37260000D03*
X138210000Y-21279500D03*
X160000000Y-21279500D03*
X160000000Y-36410000D03*
X143030000Y-36410000D03*
X156760000Y-20430000D03*
X134750000Y-20430000D03*
D15*
X157205688Y-44659935D02*
X157205688Y-44665688D01*
X162765623Y-39100000D02*
X157205688Y-44659935D01*
X162000000Y-37260000D02*
X131620000Y-37260000D01*
X140860000Y-22240000D02*
X140770000Y-22150000D01*
X162000000Y-23000000D02*
X161240000Y-22240000D01*
X161240000Y-22240000D02*
X140860000Y-22240000D01*
X160000000Y-36410000D02*
X143030000Y-36410000D01*
X160000000Y-21279500D02*
X138210000Y-21279500D01*
X57994000Y-40384000D02*
X43860000Y-40384000D01*
X58180000Y-40570000D02*
X57994000Y-40384000D01*
X43860000Y-40384000D02*
X43860000Y-40533500D01*
X74210000Y-144280000D02*
X81800000Y-144280000D01*
X48650000Y-144280000D02*
X74210000Y-144280000D01*
X35990000Y-144280000D02*
X48650000Y-144280000D01*
X82680000Y-143400000D02*
X81800000Y-144280000D01*
X85890000Y-36880000D02*
X85890000Y-34780000D01*
X143440000Y-28000000D02*
X143440000Y-27850500D01*
X131505088Y-28000000D02*
X143440000Y-28000000D01*
X130968860Y-27463772D02*
X131505088Y-28000000D01*
X130968860Y-30003772D02*
X149585606Y-30003772D01*
X149585606Y-30003772D02*
X153432006Y-33850172D01*
X36000000Y-93480000D02*
X35980000Y-93500000D01*
X48820000Y-93480000D02*
X36000000Y-93480000D01*
X74180000Y-93400000D02*
X74100000Y-93480000D01*
X74100000Y-93480000D02*
X48820000Y-93480000D01*
X82580000Y-93400000D02*
X74180000Y-93400000D01*
X82690000Y-93290000D02*
X82580000Y-93400000D01*
X40140000Y-73250000D02*
X81630000Y-73250000D01*
X40050000Y-73340000D02*
X40140000Y-73250000D01*
X29888028Y-73340000D02*
X40050000Y-73340000D01*
X88310000Y-124450000D02*
X88470000Y-124290000D01*
X74160000Y-124450000D02*
X88310000Y-124450000D01*
X48760000Y-124450000D02*
X74160000Y-124450000D01*
X48680000Y-124530000D02*
X48760000Y-124450000D01*
X48660000Y-124550000D02*
X48680000Y-124530000D01*
X36190000Y-124550000D02*
X48660000Y-124550000D01*
X114780000Y-42520000D02*
X121910000Y-42520000D01*
X114630000Y-42370000D02*
X114780000Y-42520000D01*
X87490000Y-42040000D02*
X114300000Y-42040000D01*
X114300000Y-42040000D02*
X114630000Y-42370000D01*
X36510000Y-42040000D02*
X35980000Y-42570000D01*
X87490000Y-42040000D02*
X36510000Y-42040000D01*
X48460000Y-74410000D02*
X49310000Y-75260000D01*
X49310000Y-75260000D02*
X81840000Y-75260000D01*
X81840000Y-75260000D02*
X82690000Y-74410000D01*
X48430000Y-74440000D02*
X48460000Y-74410000D01*
X35980000Y-74440000D02*
X48430000Y-74440000D01*
X80910000Y-122660000D02*
X81660000Y-123410000D01*
X59360000Y-122660000D02*
X80910000Y-122660000D01*
X58530000Y-123490000D02*
X59360000Y-122660000D01*
X58480000Y-123440000D02*
X58530000Y-123490000D01*
X29890000Y-123440000D02*
X58480000Y-123440000D01*
X39820000Y-142340000D02*
X40000000Y-142520000D01*
X29420000Y-142340000D02*
X39820000Y-142340000D01*
X29400000Y-142360000D02*
X29420000Y-142340000D01*
X39770000Y-92510000D02*
X81620000Y-92510000D01*
X39650000Y-92390000D02*
X39770000Y-92510000D01*
X29610000Y-92390000D02*
X39650000Y-92390000D01*
X28220000Y-43470000D02*
X41010000Y-43470000D01*
X41040000Y-43440000D02*
X95420000Y-43440000D01*
X136022178Y-36020000D02*
X138192006Y-33850172D01*
X128770000Y-36020000D02*
X136022178Y-36020000D01*
X122880000Y-39210000D02*
X123910000Y-39210000D01*
X120800000Y-41290000D02*
X122880000Y-39210000D01*
X119000000Y-43920000D02*
X120879500Y-43920000D01*
X118790000Y-43710000D02*
X119000000Y-43920000D01*
X118860000Y-48490000D02*
X118990000Y-48360000D01*
X102120000Y-48490000D02*
X118860000Y-48490000D01*
X102120000Y-51142082D02*
X102120000Y-48490000D01*
X103260000Y-52282082D02*
X102120000Y-51142082D01*
X103260000Y-61900000D02*
X103260000Y-52282082D01*
X103260000Y-67800000D02*
X103260000Y-67949500D01*
X103180000Y-67800000D02*
X103260000Y-67800000D01*
X103160000Y-67820000D02*
X103180000Y-67800000D01*
X103160000Y-81870000D02*
X103160000Y-67820000D01*
X103200000Y-101310000D02*
X103200000Y-87140000D01*
X103290000Y-106350000D02*
X103290000Y-106110000D01*
X103280000Y-106360000D02*
X103290000Y-106350000D01*
X103280000Y-122200000D02*
X102900923Y-122200000D01*
X103280000Y-122200000D02*
X103280000Y-106360000D01*
X118555513Y-122200000D02*
X103280000Y-122200000D01*
X42133623Y-120964000D02*
X41671910Y-120502287D01*
X60260213Y-120964000D02*
X42133623Y-120964000D01*
X60721926Y-120502287D02*
X60260213Y-120964000D01*
X61183639Y-120964000D02*
X60721926Y-120502287D01*
X79771942Y-120502287D02*
X79310229Y-120964000D01*
X79310229Y-120964000D02*
X61183639Y-120964000D01*
X80098905Y-120829250D02*
X79771942Y-120502287D01*
X101203210Y-120502287D02*
X100876247Y-120829250D01*
X100876247Y-120829250D02*
X80098905Y-120829250D01*
X102900923Y-122200000D02*
X101203210Y-120502287D01*
X120253226Y-120502287D02*
X118555513Y-122200000D01*
X120580189Y-120829250D02*
X120253226Y-120502287D01*
X138976279Y-120829250D02*
X120580189Y-120829250D01*
X139303242Y-120502287D02*
X138976279Y-120829250D01*
X139630205Y-120829250D02*
X139303242Y-120502287D01*
X158353258Y-120491348D02*
X158015356Y-120829250D01*
X158015356Y-120829250D02*
X139630205Y-120829250D01*
X133530323Y-49220000D02*
X136110000Y-49220000D01*
X130202455Y-52547868D02*
X133530323Y-49220000D01*
X127007868Y-52547868D02*
X130202455Y-52547868D01*
X125800000Y-51340000D02*
X127007868Y-52547868D01*
X121920000Y-52130000D02*
X122710000Y-51340000D01*
X121920000Y-62340000D02*
X121920000Y-52130000D01*
X122071533Y-68070000D02*
X122070715Y-68070818D01*
X122110000Y-81339500D02*
X122110000Y-68070000D01*
X122110000Y-68070000D02*
X122071533Y-68070000D01*
X122230500Y-81460000D02*
X122110000Y-81339500D01*
X122430000Y-87150000D02*
X122480000Y-87100000D01*
X122430000Y-101940000D02*
X122430000Y-87150000D01*
X122430000Y-101940000D02*
X120590226Y-101940000D01*
X138815513Y-101940000D02*
X122430000Y-101940000D01*
X119690226Y-102166000D02*
X101916939Y-102166000D01*
X120253226Y-101603000D02*
X119690226Y-102166000D01*
X101916939Y-102166000D02*
X101203210Y-101452271D01*
X120590226Y-101940000D02*
X120253226Y-101603000D01*
X139303242Y-101452271D02*
X138815513Y-101940000D01*
X139790971Y-101940000D02*
X139303242Y-101452271D01*
X157936884Y-101940000D02*
X139790971Y-101940000D01*
X158353258Y-101523626D02*
X157936884Y-101940000D01*
X127177918Y-48150000D02*
X141520000Y-48150000D01*
X123070000Y-52257918D02*
X127177918Y-48150000D01*
X123070000Y-62570000D02*
X123070000Y-52257918D01*
X123070000Y-71372082D02*
X123070000Y-68050000D01*
X123080000Y-82620000D02*
X123080000Y-71382082D01*
X123080000Y-71382082D02*
X123070000Y-71372082D01*
X123080000Y-82620000D02*
X120470971Y-82620000D01*
X139085497Y-82620000D02*
X123080000Y-82620000D01*
X41775899Y-89650000D02*
X41671910Y-89546011D01*
X60596059Y-89650000D02*
X41775899Y-89650000D01*
X60721926Y-89524133D02*
X60596059Y-89650000D01*
X60847793Y-89650000D02*
X60721926Y-89524133D01*
X79667953Y-89650000D02*
X60847793Y-89650000D01*
X79771942Y-89546011D02*
X79667953Y-89650000D01*
X83997953Y-85320000D02*
X79771942Y-89546011D01*
X100004710Y-82380377D02*
X97065087Y-85320000D01*
X97065087Y-85320000D02*
X83997953Y-85320000D01*
X101203210Y-82380377D02*
X100004710Y-82380377D01*
X101668833Y-82846000D02*
X101203210Y-82380377D01*
X119809481Y-82846000D02*
X101668833Y-82846000D01*
X120253226Y-82402255D02*
X119809481Y-82846000D01*
X120470971Y-82620000D02*
X120253226Y-82402255D01*
X139303242Y-82402255D02*
X139085497Y-82620000D01*
X158135513Y-82620000D02*
X139520987Y-82620000D01*
X158353258Y-82402255D02*
X158135513Y-82620000D01*
X139520987Y-82620000D02*
X139303242Y-82402255D01*
X141620000Y-52220000D02*
X145730000Y-48110000D01*
X141620000Y-63510000D02*
X141620000Y-52220000D01*
X141620000Y-63510000D02*
X158187508Y-63510000D01*
X139318011Y-63510000D02*
X141620000Y-63510000D01*
X158187508Y-63510000D02*
X158353258Y-63344250D01*
X139160250Y-63352239D02*
X139318011Y-63510000D01*
X120591226Y-63584000D02*
X138928489Y-63584000D01*
X120253226Y-63246000D02*
X120591226Y-63584000D01*
X138928489Y-63584000D02*
X139160250Y-63352239D01*
X119689226Y-63810000D02*
X120253226Y-63246000D01*
X101671910Y-63810000D02*
X119689226Y-63810000D01*
X101203210Y-63341300D02*
X101671910Y-63810000D01*
X85100000Y-64820000D02*
X99724510Y-64820000D01*
X99724510Y-64820000D02*
X101203210Y-63341300D01*
X84960000Y-67740000D02*
X84960000Y-67889500D01*
X82085000Y-70615000D02*
X84960000Y-67740000D01*
X79756000Y-70615000D02*
X82085000Y-70615000D01*
X79679904Y-70538904D02*
X79756000Y-70615000D01*
X60786177Y-70538904D02*
X79679904Y-70538904D01*
X60710081Y-70615000D02*
X60786177Y-70538904D01*
X41656000Y-70615000D02*
X60710081Y-70615000D01*
X148380000Y-39140000D02*
X148530000Y-38990000D01*
X148530000Y-38990000D02*
X148530000Y-39139500D01*
X135330000Y-39140000D02*
X148380000Y-39140000D01*
X134300000Y-38110000D02*
X135330000Y-39140000D01*
X123310000Y-38110000D02*
X134300000Y-38110000D01*
X120130000Y-34930000D02*
X123310000Y-38110000D01*
X120130000Y-39530000D02*
X120130000Y-34930000D01*
X119750000Y-39910000D02*
X120130000Y-39530000D01*
X101375000Y-39910000D02*
X119750000Y-39910000D01*
X101092000Y-39627000D02*
X101375000Y-39910000D01*
X101035000Y-39684000D02*
X101092000Y-39627000D01*
X79816000Y-39684000D02*
X101035000Y-39684000D01*
X79756000Y-39624000D02*
X79816000Y-39684000D01*
X79696000Y-39684000D02*
X79756000Y-39624000D01*
X60848000Y-39684000D02*
X79696000Y-39684000D01*
X60694000Y-39530000D02*
X60848000Y-39684000D01*
X60540000Y-39684000D02*
X60694000Y-39530000D01*
X41810000Y-39684000D02*
X60540000Y-39684000D01*
X41656000Y-39530000D02*
X41810000Y-39684000D01*
X159650000Y-38290000D02*
X135710000Y-38290000D01*
X136131000Y-23089500D02*
X143270000Y-23089500D01*
X136090000Y-23130500D02*
X136131000Y-23089500D01*
X148410000Y-25867994D02*
X132422006Y-25867994D01*
X132422006Y-25867994D02*
X132420000Y-25870000D01*
X144470000Y-23089500D02*
X149330000Y-23089500D01*
X99290000Y-66190000D02*
X99300000Y-66200000D01*
X81700000Y-66120000D02*
X81770000Y-66190000D01*
X81770000Y-66190000D02*
X99290000Y-66190000D01*
X159160500Y-48290000D02*
X161840000Y-48290000D01*
X161840000Y-48290000D02*
X161900000Y-48350000D01*
X158120000Y-65230000D02*
X162810000Y-65230000D01*
X162810000Y-65230000D02*
X162950000Y-65090000D01*
X158090000Y-65200000D02*
X158120000Y-65230000D01*
X93750000Y-144860000D02*
X93700000Y-144810000D01*
X104930000Y-144860000D02*
X93750000Y-144860000D01*
X128565063Y-51175063D02*
X126960000Y-49570000D01*
X157340000Y-49430000D02*
X157200000Y-49570000D01*
X163020000Y-49430000D02*
X157340000Y-49430000D01*
X99300000Y-66200000D02*
X160070000Y-66200000D01*
X120330000Y-141210000D02*
X101200000Y-141210000D01*
X60452000Y-141122000D02*
X60540000Y-141210000D01*
X120253226Y-139552303D02*
X120253226Y-141133226D01*
X139360000Y-141210000D02*
X120330000Y-141210000D01*
X161850000Y-141210000D02*
X158420000Y-141210000D01*
X42655000Y-141210000D02*
X41148000Y-139703000D01*
X79320000Y-141210000D02*
X60540000Y-141210000D01*
X79248000Y-139446000D02*
X79248000Y-141138000D01*
X60540000Y-141210000D02*
X42655000Y-141210000D01*
X158420000Y-141210000D02*
X139360000Y-141210000D01*
X158353258Y-139552303D02*
X158353258Y-141143258D01*
X101203210Y-139552303D02*
X101203210Y-141206790D01*
X60452000Y-139446000D02*
X60452000Y-141122000D01*
X120253226Y-141133226D02*
X120330000Y-141210000D01*
X139303242Y-139544252D02*
X139303242Y-141153242D01*
X139303242Y-141153242D02*
X139360000Y-141210000D01*
X79248000Y-141138000D02*
X79320000Y-141210000D01*
X101200000Y-141210000D02*
X79320000Y-141210000D01*
X101203210Y-141206790D02*
X101200000Y-141210000D01*
X158353258Y-141143258D02*
X158420000Y-141210000D01*
X160060000Y-142380000D02*
X99420000Y-142380000D01*
X160070000Y-85210000D02*
X160050000Y-85190000D01*
X160070000Y-47200000D02*
X160070000Y-47210000D01*
X160070000Y-123210000D02*
X99110000Y-123210000D01*
X150016228Y-24923772D02*
X150050000Y-24890000D01*
X160070000Y-104210000D02*
X99120000Y-104210000D01*
X103990000Y-47180000D02*
X99360000Y-47180000D01*
X160070000Y-142390000D02*
X160060000Y-142380000D01*
X133440000Y-47180000D02*
X103990000Y-47180000D01*
X160050000Y-85190000D02*
X156460000Y-85190000D01*
X133440000Y-47180000D02*
X160050000Y-47180000D01*
X156460000Y-85190000D02*
X99420000Y-85190000D01*
X95420000Y-43440000D02*
X95460000Y-43400000D01*
X150050000Y-24890000D02*
X154910000Y-24890000D01*
X99110000Y-123210000D02*
X99040000Y-123140000D01*
X160050000Y-47180000D02*
X160070000Y-47200000D01*
X133370000Y-24923772D02*
X150016228Y-24923772D01*
X40000000Y-142520000D02*
X81740000Y-142520000D01*
X88620000Y-67040000D02*
X82730000Y-67040000D01*
X160850000Y-67100000D02*
X88560000Y-67100000D01*
X88560000Y-67100000D02*
X88620000Y-67040000D01*
X160910000Y-143810000D02*
X88830000Y-143810000D01*
X82730000Y-67040000D02*
X82690000Y-67080000D01*
X160920000Y-105140000D02*
X87960000Y-105140000D01*
X88880000Y-86090000D02*
X88960000Y-86170000D01*
X160920000Y-86090000D02*
X88880000Y-86090000D01*
X88470000Y-124320000D02*
X88470000Y-124290000D01*
X160920000Y-67030000D02*
X160850000Y-67100000D01*
X160920000Y-124320000D02*
X88470000Y-124320000D01*
X132470000Y-46330500D02*
X160699500Y-46330500D01*
X160699500Y-46330500D02*
X160710000Y-46320000D01*
X160920000Y-143820000D02*
X160910000Y-143810000D01*
X121540000Y-23490000D02*
X121310000Y-23260000D01*
X147195728Y-24074272D02*
X147180000Y-24090000D01*
X27560000Y-23260000D02*
X27350000Y-23050000D01*
X121310000Y-23260000D02*
X27560000Y-23260000D01*
X146060000Y-28700000D02*
X127182082Y-28700000D01*
X149600000Y-24074272D02*
X147195728Y-24074272D01*
X147180000Y-24090000D02*
X147180000Y-24074272D01*
X147210000Y-27550000D02*
X146060000Y-28700000D01*
X127182082Y-28700000D02*
X121972082Y-23490000D01*
X121972082Y-23490000D02*
X121540000Y-23490000D01*
X45750000Y-26180001D02*
X45827499Y-26257500D01*
X121287500Y-26257500D02*
X127550000Y-32520000D01*
X127550000Y-32520000D02*
X134380000Y-32520000D01*
X144220000Y-26970000D02*
X134360000Y-26970000D01*
X45827499Y-26257500D02*
X121287500Y-26257500D01*
X144470000Y-26720000D02*
X144220000Y-26970000D01*
X132360000Y-31640000D02*
X127990000Y-31640000D01*
X65390739Y-25339261D02*
X65380000Y-25350000D01*
X121598038Y-25339261D02*
X65390739Y-25339261D01*
X127990000Y-31640000D02*
X121600000Y-25250000D01*
X87550000Y-24340000D02*
X87320000Y-24110000D01*
X145860000Y-23980000D02*
X135370000Y-23980000D01*
X135370000Y-23980000D02*
X135350000Y-23960000D01*
X131430000Y-20020000D02*
X131180000Y-19770000D01*
X123910000Y-19770000D02*
X123910000Y-19919500D01*
X131180000Y-19770000D02*
X123910000Y-19770000D01*
X121620000Y-24340000D02*
X87550000Y-24340000D01*
X131870000Y-19070000D02*
X122850000Y-19070000D01*
X134750000Y-20430000D02*
X156760000Y-20430000D01*
M02*
