M48
; DRILL file {KiCad 7.0.6} date Fri Aug 25 23:21:15 2023
; FORMAT={-:-/ absolute / metric / decimal}
; #@! TF.CreationDate,2023-08-25T23:21:15+09:00
; #@! TF.GenerationSoftware,Kicad,Pcbnew,7.0.6
; #@! TF.FileFunction,NonPlated,1,2,NPTH
FMAT,2
METRIC
; #@! TA.AperFunction,NonPlated,NPTH,ComponentDrill
T1C2.000
; #@! TA.AperFunction,NonPlated,NPTH,ComponentDrill
T2C3.000
; #@! TA.AperFunction,NonPlated,NPTH,ComponentDrill
T3C4.000
; #@! TA.AperFunction,NonPlated,NPTH,ComponentDrill
T4C6.500
%
G90
G05
T1
X28.258Y-33.337
X28.258Y-64.294
X28.258Y-83.344
X28.258Y-114.3
X28.258Y-133.35
X38.417Y-33.337
X38.417Y-64.294
X38.417Y-83.344
X38.417Y-114.3
X38.417Y-133.35
X47.307Y-33.337
X47.307Y-64.294
X47.307Y-83.344
X47.307Y-114.3
X47.307Y-133.35
X57.467Y-33.337
X57.467Y-64.294
X57.467Y-83.344
X57.467Y-114.3
X57.467Y-133.35
X66.358Y-33.337
X66.358Y-64.294
X66.358Y-83.344
X66.358Y-114.3
X66.358Y-133.35
X76.517Y-33.337
X76.517Y-64.294
X76.517Y-83.344
X76.517Y-114.3
X76.517Y-133.35
X87.789Y-33.337
X87.789Y-57.15
X87.789Y-76.2
X87.789Y-95.25
X87.789Y-114.3
X87.789Y-133.35
X97.949Y-33.337
X97.949Y-57.15
X97.949Y-76.2
X97.949Y-95.25
X97.949Y-114.3
X97.949Y-133.35
X106.839Y-33.337
X106.839Y-57.15
X106.839Y-76.2
X106.839Y-95.25
X106.839Y-114.3
X106.839Y-133.35
X116.999Y-33.337
X116.999Y-57.15
X116.999Y-76.2
X116.999Y-95.25
X116.999Y-114.3
X116.999Y-133.35
X125.889Y-57.15
X125.889Y-76.2
X125.889Y-95.25
X125.889Y-114.3
X125.889Y-133.35
X136.049Y-57.15
X136.049Y-76.2
X136.049Y-95.25
X136.049Y-114.3
X136.049Y-133.35
X144.939Y-57.15
X144.939Y-76.2
X144.939Y-95.25
X144.939Y-114.3
X144.939Y-133.35
X155.099Y-57.15
X155.099Y-76.2
X155.099Y-95.25
X155.099Y-114.3
X155.099Y-133.35
T2
X29.527Y-30.797
X29.527Y-61.754
X29.527Y-80.804
X29.527Y-111.76
X29.527Y-130.81
X35.877Y-28.258
X35.877Y-59.214
X35.877Y-78.264
X35.877Y-109.22
X35.877Y-128.27
X48.578Y-30.797
X48.578Y-61.754
X48.578Y-80.804
X48.578Y-111.76
X48.578Y-130.81
X54.927Y-28.258
X54.927Y-59.214
X54.927Y-78.264
X54.927Y-109.22
X54.927Y-128.27
X67.627Y-30.797
X67.627Y-61.754
X67.627Y-80.804
X67.627Y-111.76
X67.627Y-130.81
X73.977Y-28.258
X73.977Y-59.214
X73.977Y-78.264
X73.977Y-109.22
X73.977Y-128.27
X89.059Y-30.797
X89.059Y-54.61
X89.059Y-73.66
X89.059Y-92.71
X89.059Y-111.76
X89.059Y-130.81
X95.409Y-28.258
X95.409Y-52.07
X95.409Y-71.12
X95.409Y-90.17
X95.409Y-109.22
X95.409Y-128.27
X108.109Y-30.797
X108.109Y-54.61
X108.109Y-73.66
X108.109Y-92.71
X108.109Y-111.76
X108.109Y-130.81
X114.459Y-28.258
X114.459Y-52.07
X114.459Y-71.12
X114.459Y-90.17
X114.459Y-109.22
X114.459Y-128.27
X127.159Y-54.61
X127.159Y-73.66
X127.159Y-92.71
X127.159Y-111.76
X127.159Y-130.81
X133.509Y-52.07
X133.509Y-71.12
X133.509Y-90.17
X133.509Y-109.22
X133.509Y-128.27
X146.209Y-54.61
X146.209Y-73.66
X146.209Y-92.71
X146.209Y-111.76
X146.209Y-130.81
X152.559Y-52.07
X152.559Y-71.12
X152.559Y-90.17
X152.559Y-109.22
X152.559Y-128.27
T3
X33.337Y-33.337
X33.337Y-64.294
X33.337Y-83.344
X33.337Y-114.3
X33.337Y-133.35
X52.387Y-33.337
X52.387Y-64.294
X52.387Y-83.344
X52.387Y-114.3
X52.387Y-133.35
X71.438Y-33.337
X71.438Y-64.294
X71.438Y-83.344
X71.438Y-114.3
X71.438Y-133.35
X92.869Y-33.337
X92.869Y-57.15
X92.869Y-76.2
X92.869Y-95.25
X92.869Y-114.3
X92.869Y-133.35
X111.919Y-33.337
X111.919Y-57.15
X111.919Y-76.2
X111.919Y-95.25
X111.919Y-114.3
X111.919Y-133.35
X130.969Y-57.15
X130.969Y-76.2
X130.969Y-95.25
X130.969Y-114.3
X130.969Y-133.35
X150.019Y-57.15
X150.019Y-76.2
X150.019Y-95.25
X150.019Y-114.3
X150.019Y-133.35
T4
X19.645Y-19.05
X19.645Y-147.042
X77.391Y-48.816
X77.391Y-98.822
X118.467Y-19.05
X126.206Y-42.863
X163.711Y-43.458
X163.711Y-147.042
T0
M30
