G04 #@! TF.GenerationSoftware,KiCad,Pcbnew,7.0.6*
G04 #@! TF.CreationDate,2023-08-25T23:20:57+09:00*
G04 #@! TF.ProjectId,yamata37,79616d61-7461-4333-972e-6b696361645f,rev?*
G04 #@! TF.SameCoordinates,Original*
G04 #@! TF.FileFunction,Profile,NP*
%FSLAX46Y46*%
G04 Gerber Fmt 4.6, Leading zero omitted, Abs format (unit mm)*
G04 Created by KiCad (PCBNEW 7.0.6) date 2023-08-25 23:20:57*
%MOMM*%
%LPD*%
G01*
G04 APERTURE LIST*
G04 #@! TA.AperFunction,Profile*
%ADD10C,0.100000*%
G04 #@! TD*
G04 #@! TA.AperFunction,Profile*
%ADD11C,0.120000*%
G04 #@! TD*
G04 APERTURE END LIST*
D10*
X165000000Y-32000000D02*
X171000000Y-32000000D01*
X165000000Y-20000000D02*
X165000000Y-32000000D01*
X171000000Y-20000000D02*
X165000000Y-20000000D01*
X171000000Y-32000000D02*
X171000000Y-150000000D01*
X170878680Y-16121320D02*
X171000000Y-20000000D01*
X170878680Y-16121320D02*
G75*
G03*
X167878680Y-13121320I-3000001J-1D01*
G01*
X168000000Y-153000000D02*
G75*
G03*
X171000000Y-150000000I-1J3000001D01*
G01*
X15121320Y-149878680D02*
G75*
G03*
X18121320Y-152878680I3000001J1D01*
G01*
X18000000Y-13000000D02*
G75*
G03*
X15000000Y-16000000I0J-3000000D01*
G01*
X167878680Y-13121320D02*
X18000000Y-13000000D01*
X18121320Y-152878680D02*
X168000000Y-153000000D01*
X15000000Y-16000000D02*
X15121320Y-149878680D01*
D11*
X50514000Y-36234000D02*
X54014000Y-36234000D01*
X50514000Y-39434000D02*
X50514000Y-36234000D01*
X54014000Y-36234000D02*
X54014000Y-39434000D01*
X54014000Y-39434000D02*
X50514000Y-39434000D01*
X110272501Y-98716000D02*
X113772501Y-98716000D01*
X110272501Y-101916000D02*
X110272501Y-98716000D01*
X113772501Y-98716000D02*
X113772501Y-101916000D01*
X113772501Y-101916000D02*
X110272501Y-101916000D01*
X129465790Y-136334000D02*
X132965790Y-136334000D01*
X129465790Y-139534000D02*
X129465790Y-136334000D01*
X132965790Y-136334000D02*
X132965790Y-139534000D01*
X132965790Y-139534000D02*
X129465790Y-139534000D01*
X31718000Y-36234000D02*
X35218000Y-36234000D01*
X31718000Y-39434000D02*
X31718000Y-36234000D01*
X35218000Y-36234000D02*
X35218000Y-39434000D01*
X35218000Y-39434000D02*
X31718000Y-39434000D01*
X35087528Y-70215682D02*
X31587528Y-70215682D01*
X35087528Y-67015682D02*
X35087528Y-70215682D01*
X31587528Y-70215682D02*
X31587528Y-67015682D01*
X31587528Y-67015682D02*
X35087528Y-67015682D01*
X50514000Y-136334000D02*
X54014000Y-136334000D01*
X50514000Y-139534000D02*
X50514000Y-136334000D01*
X54014000Y-136334000D02*
X54014000Y-139534000D01*
X54014000Y-139534000D02*
X50514000Y-139534000D01*
X73318000Y-139534000D02*
X69818000Y-139534000D01*
X73318000Y-136334000D02*
X73318000Y-139534000D01*
X69818000Y-139534000D02*
X69818000Y-136334000D01*
X69818000Y-136334000D02*
X73318000Y-136334000D01*
X110109672Y-136486000D02*
X113609672Y-136486000D01*
X110109672Y-139686000D02*
X110109672Y-136486000D01*
X113609672Y-136486000D02*
X113609672Y-139686000D01*
X113609672Y-139686000D02*
X110109672Y-139686000D01*
X35087528Y-120714000D02*
X31587528Y-120714000D01*
X35087528Y-117514000D02*
X35087528Y-120714000D01*
X31587528Y-120714000D02*
X31587528Y-117514000D01*
X31587528Y-117514000D02*
X35087528Y-117514000D01*
X129465790Y-79170000D02*
X132965790Y-79170000D01*
X129465790Y-82370000D02*
X129465790Y-79170000D01*
X132965790Y-79170000D02*
X132965790Y-82370000D01*
X132965790Y-82370000D02*
X129465790Y-82370000D01*
X50514000Y-117514000D02*
X54014000Y-117514000D01*
X50514000Y-120714000D02*
X50514000Y-117514000D01*
X54014000Y-117514000D02*
X54014000Y-120714000D01*
X54014000Y-120714000D02*
X50514000Y-120714000D01*
X73318000Y-120714000D02*
X69818000Y-120714000D01*
X73318000Y-117514000D02*
X73318000Y-120714000D01*
X69818000Y-120714000D02*
X69818000Y-117514000D01*
X69818000Y-117514000D02*
X73318000Y-117514000D01*
X110272501Y-79396000D02*
X113772501Y-79396000D01*
X110272501Y-82596000D02*
X110272501Y-79396000D01*
X113772501Y-79396000D02*
X113772501Y-82596000D01*
X113772501Y-82596000D02*
X110272501Y-82596000D01*
X110272501Y-117605250D02*
X113772501Y-117605250D01*
X110272501Y-120805250D02*
X110272501Y-117605250D01*
X113772501Y-117605250D02*
X113772501Y-120805250D01*
X113772501Y-120805250D02*
X110272501Y-120805250D01*
X129465790Y-98490000D02*
X132965790Y-98490000D01*
X129465790Y-101690000D02*
X129465790Y-98490000D01*
X132965790Y-98490000D02*
X132965790Y-101690000D01*
X132965790Y-101690000D02*
X129465790Y-101690000D01*
X35087528Y-139534000D02*
X31587528Y-139534000D01*
X35087528Y-136334000D02*
X35087528Y-139534000D01*
X31587528Y-139534000D02*
X31587528Y-136334000D01*
X31587528Y-136334000D02*
X35087528Y-136334000D01*
X91365790Y-60134000D02*
X94865790Y-60134000D01*
X91365790Y-63334000D02*
X91365790Y-60134000D01*
X94865790Y-60134000D02*
X94865790Y-63334000D01*
X94865790Y-63334000D02*
X91365790Y-63334000D01*
X148340000Y-79170000D02*
X151840000Y-79170000D01*
X148340000Y-82370000D02*
X148340000Y-79170000D01*
X151840000Y-79170000D02*
X151840000Y-82370000D01*
X151840000Y-82370000D02*
X148340000Y-82370000D01*
X73318000Y-70215682D02*
X69818000Y-70215682D01*
X73318000Y-67015682D02*
X73318000Y-70215682D01*
X69818000Y-70215682D02*
X69818000Y-67015682D01*
X69818000Y-67015682D02*
X73318000Y-67015682D01*
X129465790Y-60134000D02*
X132965790Y-60134000D01*
X129465790Y-63334000D02*
X129465790Y-60134000D01*
X132965790Y-60134000D02*
X132965790Y-63334000D01*
X132965790Y-63334000D02*
X129465790Y-63334000D01*
X91365790Y-117379250D02*
X94865790Y-117379250D01*
X91365790Y-120579250D02*
X91365790Y-117379250D01*
X94865790Y-117379250D02*
X94865790Y-120579250D01*
X94865790Y-120579250D02*
X91365790Y-120579250D01*
X50514000Y-67015682D02*
X54014000Y-67015682D01*
X50514000Y-70215682D02*
X50514000Y-67015682D01*
X54014000Y-67015682D02*
X54014000Y-70215682D01*
X54014000Y-70215682D02*
X50514000Y-70215682D01*
X91365790Y-136334000D02*
X94865790Y-136334000D01*
X91365790Y-139534000D02*
X91365790Y-136334000D01*
X94865790Y-136334000D02*
X94865790Y-139534000D01*
X94865790Y-139534000D02*
X91365790Y-139534000D01*
X148340000Y-98490000D02*
X151840000Y-98490000D01*
X148340000Y-101690000D02*
X148340000Y-98490000D01*
X151840000Y-98490000D02*
X151840000Y-101690000D01*
X151840000Y-101690000D02*
X148340000Y-101690000D01*
X110272501Y-60360000D02*
X113772501Y-60360000D01*
X110272501Y-63560000D02*
X110272501Y-60360000D01*
X113772501Y-60360000D02*
X113772501Y-63560000D01*
X113772501Y-63560000D02*
X110272501Y-63560000D01*
X73310000Y-89400000D02*
X69810000Y-89400000D01*
X73310000Y-86200000D02*
X73310000Y-89400000D01*
X69810000Y-89400000D02*
X69810000Y-86200000D01*
X69810000Y-86200000D02*
X73310000Y-86200000D01*
X91365790Y-79170000D02*
X94865790Y-79170000D01*
X91365790Y-82370000D02*
X91365790Y-79170000D01*
X94865790Y-79170000D02*
X94865790Y-82370000D01*
X94865790Y-82370000D02*
X91365790Y-82370000D01*
X91094000Y-36234000D02*
X94594000Y-36234000D01*
X91094000Y-39434000D02*
X91094000Y-36234000D01*
X94594000Y-36234000D02*
X94594000Y-39434000D01*
X94594000Y-39434000D02*
X91094000Y-39434000D01*
X113782961Y-39660000D02*
X110282961Y-39660000D01*
X113782961Y-36460000D02*
X113782961Y-39660000D01*
X110282961Y-39660000D02*
X110282961Y-36460000D01*
X110282961Y-36460000D02*
X113782961Y-36460000D01*
X148340000Y-117379250D02*
X151840000Y-117379250D01*
X148340000Y-120579250D02*
X148340000Y-117379250D01*
X151840000Y-117379250D02*
X151840000Y-120579250D01*
X151840000Y-120579250D02*
X148340000Y-120579250D01*
X50506000Y-86200000D02*
X54006000Y-86200000D01*
X50506000Y-89400000D02*
X50506000Y-86200000D01*
X54006000Y-86200000D02*
X54006000Y-89400000D01*
X54006000Y-89400000D02*
X50506000Y-89400000D01*
X35079528Y-89400000D02*
X31579528Y-89400000D01*
X35079528Y-86200000D02*
X35079528Y-89400000D01*
X31579528Y-89400000D02*
X31579528Y-86200000D01*
X31579528Y-86200000D02*
X35079528Y-86200000D01*
X148340000Y-136334000D02*
X151840000Y-136334000D01*
X148340000Y-139534000D02*
X148340000Y-136334000D01*
X151840000Y-136334000D02*
X151840000Y-139534000D01*
X151840000Y-139534000D02*
X148340000Y-139534000D01*
X129465790Y-117379250D02*
X132965790Y-117379250D01*
X129465790Y-120579250D02*
X129465790Y-117379250D01*
X132965790Y-117379250D02*
X132965790Y-120579250D01*
X132965790Y-120579250D02*
X129465790Y-120579250D01*
X91365790Y-98490000D02*
X94865790Y-98490000D01*
X91365790Y-101690000D02*
X91365790Y-98490000D01*
X94865790Y-98490000D02*
X94865790Y-101690000D01*
X94865790Y-101690000D02*
X91365790Y-101690000D01*
X148340000Y-60060000D02*
X151840000Y-60060000D01*
X148340000Y-63260000D02*
X148340000Y-60060000D01*
X151840000Y-60060000D02*
X151840000Y-63260000D01*
X151840000Y-63260000D02*
X148340000Y-63260000D01*
X73318000Y-39434000D02*
X69818000Y-39434000D01*
X73318000Y-36234000D02*
X73318000Y-39434000D01*
X69818000Y-39434000D02*
X69818000Y-36234000D01*
X69818000Y-36234000D02*
X73318000Y-36234000D01*
M02*
