M48
; DRILL file {KiCad 7.0.6} date Fri Aug 25 23:21:15 2023
; FORMAT={-:-/ absolute / metric / decimal}
; #@! TF.CreationDate,2023-08-25T23:21:15+09:00
; #@! TF.GenerationSoftware,Kicad,Pcbnew,7.0.6
; #@! TF.FileFunction,Plated,1,2,PTH
FMAT,2
METRIC
; #@! TA.AperFunction,Plated,PTH,ViaDrill
T1C0.400
; #@! TA.AperFunction,Plated,PTH,ComponentDrill
T2C0.813
; #@! TA.AperFunction,Plated,PTH,ComponentDrill
T3C1.300
%
G90
G05
T1
X27.35Y-23.05
X28.22Y-43.47
X29.4Y-142.36
X29.61Y-92.39
X29.888Y-73.34
X29.89Y-123.44
X35.98Y-42.57
X35.98Y-74.44
X35.98Y-93.5
X35.99Y-144.28
X36.19Y-124.55
X43.86Y-40.533
X45.75Y-26.18
X46.84Y-42.04
X48.46Y-74.41
X48.65Y-144.28
X48.68Y-124.53
X48.82Y-93.48
X57.45Y-142.42
X58.18Y-40.57
X58.53Y-123.49
X58.88Y-73.25
X58.88Y-92.57
X59.68Y-43.44
X65.38Y-25.35
X65.98Y-92.33
X66.2Y-43.43
X66.43Y-122.66
X66.56Y-73.09
X66.85Y-142.41
X74.16Y-124.45
X74.17Y-41.91
X74.17Y-75.21
X74.18Y-93.4
X74.21Y-144.28
X81.62Y-92.51
X81.63Y-73.25
X81.66Y-123.41
X81.7Y-66.12
X81.74Y-142.52
X82.68Y-143.4
X82.69Y-67.08
X82.69Y-74.41
X82.69Y-93.29
X82.69Y-124.53
X84.96Y-67.889
X85.1Y-64.82
X85.89Y-34.78
X85.89Y-36.88
X87.32Y-24.11
X87.49Y-42.04
X88.31Y-105.14
X88.47Y-124.29
X88.62Y-67.04
X88.83Y-143.81
X88.96Y-86.17
X93.7Y-144.81
X95.46Y-43.4
X99.04Y-123.14
X99.12Y-104.21
X99.3Y-66.2
X99.36Y-47.18
X99.42Y-85.19
X99.42Y-142.38
X103.16Y-81.87
X103.2Y-87.14
X103.2Y-101.31
X103.26Y-61.9
X103.26Y-67.95
X103.29Y-106.11
X103.99Y-47.18
X104.93Y-144.86
X106.27Y-142.22
X106.66Y-46.94
X106.69Y-66.08
X106.73Y-85.12
X107.06Y-103.97
X107.06Y-123.05
X114.46Y-143.81
X114.59Y-67.05
X114.63Y-42.37
X114.63Y-124.34
X114.68Y-105.059
X114.73Y-86.09
X118.79Y-43.71
X118.99Y-48.36
X120.8Y-41.29
X120.879Y-43.92
X121.62Y-24.34
X121.91Y-42.52
X121.92Y-62.34
X122.071Y-68.071
X122.23Y-81.46
X122.48Y-87.1
X122.71Y-51.34
X122.85Y-19.07
X123.07Y-62.57
X123.07Y-68.05
X123.91Y-19.919
X123.91Y-39.21
X125.8Y-51.34
X125.84Y-86.09
X126.07Y-124.32
X126.16Y-67.1
X126.46Y-105.14
X126.66Y-143.81
X126.96Y-49.57
X128.565Y-51.175
X128.77Y-36.02
X131.43Y-20.02
X131.62Y-37.26
X131.87Y-19.07
X132.36Y-31.64
X132.42Y-25.87
X132.47Y-46.331
X133.37Y-24.924
X133.44Y-47.18
X134.36Y-26.97
X134.38Y-32.52
X134.75Y-20.43
X135.35Y-23.96
X135.71Y-38.29
X136.09Y-23.13
X136.11Y-49.22
X137.1Y-104.13
X137.23Y-123.13
X137.38Y-142.27
X137.47Y-85.17
X137.59Y-66.25
X138.21Y-21.279
X140.77Y-22.15
X141.52Y-48.15
X143.03Y-36.41
X143.27Y-23.089
X143.44Y-27.851
X144.29Y-66.17
X144.47Y-23.089
X144.47Y-26.72
X144.77Y-85.09
X145.05Y-104.08
X145.19Y-142.33
X145.26Y-123.06
X145.73Y-48.11
X145.86Y-23.98
X147.18Y-24.074
X147.21Y-27.55
X148.41Y-25.868
X148.53Y-39.139
X149.33Y-23.089
X149.6Y-24.074
X152.67Y-105.18
X152.7Y-67.1
X152.71Y-143.81
X152.75Y-86.09
X152.88Y-124.31
X153.1Y-46.19
X154.36Y-46.31
X154.91Y-24.89
X156.76Y-20.43
X157.2Y-49.57
X157.206Y-44.666
X158.09Y-65.2
X159.16Y-48.29
X159.65Y-38.29
X160.0Y-21.279
X160.0Y-36.41
X160.07Y-47.21
X160.07Y-66.2
X160.07Y-85.21
X160.07Y-104.21
X160.07Y-123.21
X160.07Y-142.39
X160.71Y-46.32
X160.92Y-67.03
X160.92Y-86.09
X160.92Y-105.14
X160.92Y-124.32
X160.92Y-143.82
X161.85Y-141.21
X161.9Y-48.35
X162.0Y-23.0
X162.0Y-37.26
X162.766Y-39.1
X162.95Y-65.09
X163.02Y-49.43
T2
X41.148Y-132.083
X41.148Y-139.703
X41.656Y-31.91
X41.656Y-39.53
X41.656Y-62.995
X41.656Y-70.615
X41.672Y-81.926
X41.672Y-89.546
X41.672Y-112.882
X41.672Y-120.502
X60.452Y-131.826
X60.452Y-139.446
X60.694Y-31.91
X60.694Y-39.53
X60.722Y-81.904
X60.722Y-89.524
X60.722Y-112.882
X60.722Y-120.502
X60.786Y-62.919
X60.786Y-70.539
X79.248Y-131.826
X79.248Y-139.446
X79.756Y-32.004
X79.756Y-39.624
X79.756Y-62.995
X79.756Y-70.615
X79.772Y-81.926
X79.772Y-89.546
X79.772Y-112.882
X79.772Y-120.502
X101.092Y-32.007
X101.092Y-39.627
X101.203Y-55.721
X101.203Y-63.341
X101.203Y-74.76
X101.203Y-82.38
X101.203Y-93.832
X101.203Y-101.452
X101.203Y-112.882
X101.203Y-120.502
X101.203Y-131.932
X101.203Y-139.552
X120.13Y-31.91
X120.13Y-39.53
X120.253Y-55.626
X120.253Y-63.246
X120.253Y-74.782
X120.253Y-82.402
X120.253Y-93.983
X120.253Y-101.603
X120.253Y-112.882
X120.253Y-120.502
X120.253Y-131.932
X120.253Y-139.552
X130.969Y-22.384
X130.969Y-24.924
X130.969Y-27.464
X130.969Y-30.004
X135.652Y-18.63
X135.652Y-33.85
X138.192Y-18.63
X138.192Y-33.85
X139.16Y-55.732
X139.16Y-63.352
X139.303Y-74.782
X139.303Y-82.402
X139.303Y-93.832
X139.303Y-101.452
X139.303Y-112.882
X139.303Y-120.502
X139.303Y-131.924
X139.303Y-139.544
X140.732Y-18.63
X140.732Y-33.85
X143.272Y-18.63
X143.272Y-33.85
X145.812Y-18.63
X145.812Y-33.85
X148.352Y-18.63
X148.352Y-33.85
X150.892Y-18.63
X150.892Y-33.85
X153.432Y-18.63
X153.432Y-33.85
X155.972Y-18.63
X155.972Y-33.85
X158.353Y-55.724
X158.353Y-63.344
X158.353Y-74.782
X158.353Y-82.402
X158.353Y-93.904
X158.353Y-101.524
X158.353Y-112.871
X158.353Y-120.491
X158.353Y-131.932
X158.353Y-139.552
X158.512Y-18.63
X158.512Y-33.85
X161.052Y-18.63
X161.052Y-33.85
X163.592Y-18.63
X163.592Y-33.85
T3
X125.064Y-17.264
X131.564Y-17.264
T0
M30
